<?xml version="1.0" encoding="us-ascii" standalone="no"?><svg xmlns="http://www.w3.org/2000/svg" xmlns:xlink="http://www.w3.org/1999/xlink" contentStyleType="text/css" height="1034px" preserveAspectRatio="none" style="width:1252px;height:1034px;background:#FFFFFF;" version="1.1" viewBox="0 0 1252 1034" width="1252px" zoomAndPan="magnify"><defs/><g><line style="stroke:#181818;stroke-width:0.5;stroke-dasharray:5.0,5.0;" x1="22" x2="22" y1="82.6094" y2="952.4531"/><line style="stroke:#181818;stroke-width:0.5;stroke-dasharray:5.0,5.0;" x1="247.5" x2="247.5" y1="82.6094" y2="952.4531"/><line style="stroke:#181818;stroke-width:0.5;stroke-dasharray:5.0,5.0;" x1="429.5" x2="429.5" y1="82.6094" y2="952.4531"/><line style="stroke:#181818;stroke-width:0.5;stroke-dasharray:5.0,5.0;" x1="611" x2="611" y1="82.6094" y2="952.4531"/><line style="stroke:#181818;stroke-width:0.5;stroke-dasharray:5.0,5.0;" x1="785" x2="785" y1="82.6094" y2="952.4531"/><line style="stroke:#181818;stroke-width:0.5;stroke-dasharray:5.0,5.0;" x1="948" x2="948" y1="82.6094" y2="952.4531"/><line style="stroke:#181818;stroke-width:0.5;stroke-dasharray:5.0,5.0;" x1="1073" x2="1073" y1="82.6094" y2="952.4531"/><line style="stroke:#181818;stroke-width:0.5;stroke-dasharray:5.0,5.0;" x1="1196" x2="1196" y1="82.6094" y2="952.4531"/><text fill="#000000" font-family="sans-serif" font-size="14" lengthAdjust="spacing" textLength="29" x="5" y="79.5332">User</text><ellipse cx="22.5" cy="13.5" fill="#E2E2F0" rx="8" ry="8" style="stroke:#181818;stroke-width:0.5;"/><path d="M22.5,21.5 L22.5,48.5 M9.5,29.5 L35.5,29.5 M22.5,48.5 L9.5,63.5 M22.5,48.5 L35.5,63.5 " fill="none" style="stroke:#181818;stroke-width:0.5;"/><text fill="#000000" font-family="sans-serif" font-size="14" lengthAdjust="spacing" textLength="29" x="5" y="965.9863">User</text><ellipse cx="22.5" cy="977.5625" fill="#E2E2F0" rx="8" ry="8" style="stroke:#181818;stroke-width:0.5;"/><path d="M22.5,985.5625 L22.5,1012.5625 M9.5,993.5625 L35.5,993.5625 M22.5,1012.5625 L9.5,1027.5625 M22.5,1012.5625 L35.5,1027.5625 " fill="none" style="stroke:#181818;stroke-width:0.5;"/><rect fill="#E2E2F0" height="31.6094" rx="2.5" ry="2.5" style="stroke:#181818;stroke-width:0.5;" width="88" x="203.5" y="50"/><text fill="#000000" font-family="sans-serif" font-size="14" lengthAdjust="spacing" textLength="74" x="210.5" y="71.5332">Frontend UI</text><rect fill="#E2E2F0" height="31.6094" rx="2.5" ry="2.5" style="stroke:#181818;stroke-width:0.5;" width="88" x="203.5" y="951.4531"/><text fill="#000000" font-family="sans-serif" font-size="14" lengthAdjust="spacing" textLength="74" x="210.5" y="972.9863">Frontend UI</text><rect fill="#E2E2F0" height="31.6094" rx="2.5" ry="2.5" style="stroke:#181818;stroke-width:0.5;" width="202" x="328.5" y="50"/><text fill="#000000" font-family="sans-serif" font-size="14" lengthAdjust="spacing" textLength="188" x="335.5" y="71.5332">Presentation Layer (Web API)</text><rect fill="#E2E2F0" height="31.6094" rx="2.5" ry="2.5" style="stroke:#181818;stroke-width:0.5;" width="202" x="328.5" y="951.4531"/><text fill="#000000" font-family="sans-serif" font-size="14" lengthAdjust="spacing" textLength="188" x="335.5" y="972.9863">Presentation Layer (Web API)</text><rect fill="#E2E2F0" height="31.6094" rx="2.5" ry="2.5" style="stroke:#181818;stroke-width:0.5;" width="123" x="550" y="50"/><text fill="#000000" font-family="sans-serif" font-size="14" lengthAdjust="spacing" textLength="109" x="557" y="71.5332">Application Layer</text><rect fill="#E2E2F0" height="31.6094" rx="2.5" ry="2.5" style="stroke:#181818;stroke-width:0.5;" width="123" x="550" y="951.4531"/><text fill="#000000" font-family="sans-serif" font-size="14" lengthAdjust="spacing" textLength="109" x="557" y="972.9863">Application Layer</text><rect fill="#E2E2F0" height="31.6094" rx="2.5" ry="2.5" style="stroke:#181818;stroke-width:0.5;" width="204" x="683" y="50"/><text fill="#000000" font-family="sans-serif" font-size="14" lengthAdjust="spacing" textLength="190" x="690" y="71.5332">Query Handler (Infrastructure)</text><rect fill="#E2E2F0" height="31.6094" rx="2.5" ry="2.5" style="stroke:#181818;stroke-width:0.5;" width="204" x="683" y="951.4531"/><text fill="#000000" font-family="sans-serif" font-size="14" lengthAdjust="spacing" textLength="190" x="690" y="972.9863">Query Handler (Infrastructure)</text><rect fill="#E2E2F0" height="31.6094" rx="2.5" ry="2.5" style="stroke:#181818;stroke-width:0.5;" width="102" x="897" y="50"/><text fill="#000000" font-family="sans-serif" font-size="14" lengthAdjust="spacing" textLength="88" x="904" y="71.5332">Domain Layer</text><rect fill="#E2E2F0" height="31.6094" rx="2.5" ry="2.5" style="stroke:#181818;stroke-width:0.5;" width="102" x="897" y="951.4531"/><text fill="#000000" font-family="sans-serif" font-size="14" lengthAdjust="spacing" textLength="88" x="904" y="972.9863">Domain Layer</text><rect fill="#E2E2F0" height="31.6094" rx="2.5" ry="2.5" style="stroke:#181818;stroke-width:0.5;" width="128" x="1009" y="50"/><text fill="#000000" font-family="sans-serif" font-size="14" lengthAdjust="spacing" textLength="114" x="1016" y="71.5332">Persistence Layer</text><rect fill="#E2E2F0" height="31.6094" rx="2.5" ry="2.5" style="stroke:#181818;stroke-width:0.5;" width="128" x="1009" y="951.4531"/><text fill="#000000" font-family="sans-serif" font-size="14" lengthAdjust="spacing" textLength="114" x="1016" y="972.9863">Persistence Layer</text><rect fill="#E2E2F0" height="31.6094" rx="2.5" ry="2.5" style="stroke:#181818;stroke-width:0.5;" width="99" x="1147" y="50"/><text fill="#000000" font-family="sans-serif" font-size="14" lengthAdjust="spacing" textLength="85" x="1154" y="71.5332">Email Service</text><rect fill="#E2E2F0" height="31.6094" rx="2.5" ry="2.5" style="stroke:#181818;stroke-width:0.5;" width="99" x="1147" y="951.4531"/><text fill="#000000" font-family="sans-serif" font-size="14" lengthAdjust="spacing" textLength="85" x="1154" y="972.9863">Email Service</text><polygon fill="#181818" points="235.5,110.9609,245.5,114.9609,235.5,118.9609,239.5,114.9609" style="stroke:#181818;stroke-width:1.0;"/><line style="stroke:#181818;stroke-width:1.0;" x1="22.5" x2="241.5" y1="114.9609" y2="114.9609"/><text fill="#000000" font-family="sans-serif" font-size="13" lengthAdjust="spacing" textLength="150" x="29.5" y="110.1045">navigates to booking page</text><polygon fill="#181818" points="417.5,141.3125,427.5,145.3125,417.5,149.3125,421.5,145.3125" style="stroke:#181818;stroke-width:1.0;"/><line style="stroke:#181818;stroke-width:1.0;" x1="247.5" x2="423.5" y1="145.3125" y2="145.3125"/><text fill="#000000" font-family="sans-serif" font-size="13" lengthAdjust="spacing" textLength="158" x="254.5" y="140.4561">request categories/services</text><polygon fill="#181818" points="599.5,171.6641,609.5,175.6641,599.5,179.6641,603.5,175.6641" style="stroke:#181818;stroke-width:1.0;"/><line style="stroke:#181818;stroke-width:1.0;" x1="429.5" x2="605.5" y1="175.6641" y2="175.6641"/><text fill="#000000" font-family="sans-serif" font-size="13" lengthAdjust="spacing" textLength="158" x="436.5" y="170.8076">request categories/services</text><polygon fill="#181818" points="773,202.0156,783,206.0156,773,210.0156,777,206.0156" style="stroke:#181818;stroke-width:1.0;"/><line style="stroke:#181818;stroke-width:1.0;" x1="611.5" x2="779" y1="206.0156" y2="206.0156"/><text fill="#000000" font-family="sans-serif" font-size="13" lengthAdjust="spacing" textLength="147" x="618.5" y="201.1592">query categories/services</text><polygon fill="#181818" points="1061,232.3672,1071,236.3672,1061,240.3672,1065,236.3672" style="stroke:#181818;stroke-width:1.0;"/><line style="stroke:#181818;stroke-width:1.0;" x1="785" x2="1067" y1="236.3672" y2="236.3672"/><text fill="#000000" font-family="sans-serif" font-size="13" lengthAdjust="spacing" textLength="168" x="792" y="231.5107">fetch categories and services</text><polygon fill="#181818" points="796,262.7188,786,266.7188,796,270.7188,792,266.7188" style="stroke:#181818;stroke-width:1.0;"/><line style="stroke:#181818;stroke-width:1.0;stroke-dasharray:2.0,2.0;" x1="790" x2="1072" y1="266.7188" y2="266.7188"/><text fill="#000000" font-family="sans-serif" font-size="13" lengthAdjust="spacing" textLength="62" x="802" y="261.8623">return data</text><polygon fill="#181818" points="622.5,293.0703,612.5,297.0703,622.5,301.0703,618.5,297.0703" style="stroke:#181818;stroke-width:1.0;"/><line style="stroke:#181818;stroke-width:1.0;stroke-dasharray:2.0,2.0;" x1="616.5" x2="784" y1="297.0703" y2="297.0703"/><text fill="#000000" font-family="sans-serif" font-size="13" lengthAdjust="spacing" textLength="148" x="628.5" y="292.2139">return categories/services</text><polygon fill="#181818" points="440.5,323.4219,430.5,327.4219,440.5,331.4219,436.5,327.4219" style="stroke:#181818;stroke-width:1.0;"/><line style="stroke:#181818;stroke-width:1.0;stroke-dasharray:2.0,2.0;" x1="434.5" x2="610.5" y1="327.4219" y2="327.4219"/><text fill="#000000" font-family="sans-serif" font-size="13" lengthAdjust="spacing" textLength="62" x="446.5" y="322.5654">return data</text><polygon fill="#181818" points="258.5,353.7734,248.5,357.7734,258.5,361.7734,254.5,357.7734" style="stroke:#181818;stroke-width:1.0;"/><line style="stroke:#181818;stroke-width:1.0;stroke-dasharray:2.0,2.0;" x1="252.5" x2="428.5" y1="357.7734" y2="357.7734"/><text fill="#000000" font-family="sans-serif" font-size="13" lengthAdjust="spacing" textLength="151" x="264.5" y="352.917">render categories/services</text><polygon fill="#181818" points="235.5,384.125,245.5,388.125,235.5,392.125,239.5,388.125" style="stroke:#181818;stroke-width:1.0;"/><line style="stroke:#181818;stroke-width:1.0;" x1="22.5" x2="241.5" y1="388.125" y2="388.125"/><text fill="#000000" font-family="sans-serif" font-size="13" lengthAdjust="spacing" textLength="201" x="29.5" y="383.2686">selects services and preferred date</text><polygon fill="#181818" points="417.5,414.4766,427.5,418.4766,417.5,422.4766,421.5,418.4766" style="stroke:#181818;stroke-width:1.0;"/><line style="stroke:#181818;stroke-width:1.0;" x1="247.5" x2="423.5" y1="418.4766" y2="418.4766"/><text fill="#000000" font-family="sans-serif" font-size="13" lengthAdjust="spacing" textLength="157" x="254.5" y="413.6201">request available time slots</text><polygon fill="#181818" points="599.5,444.8281,609.5,448.8281,599.5,452.8281,603.5,448.8281" style="stroke:#181818;stroke-width:1.0;"/><line style="stroke:#181818;stroke-width:1.0;" x1="429.5" x2="605.5" y1="448.8281" y2="448.8281"/><text fill="#000000" font-family="sans-serif" font-size="13" lengthAdjust="spacing" textLength="89" x="436.5" y="443.9717">fetch time slots</text><polygon fill="#181818" points="773,475.1797,783,479.1797,773,483.1797,777,479.1797" style="stroke:#181818;stroke-width:1.0;"/><line style="stroke:#181818;stroke-width:1.0;" x1="611.5" x2="779" y1="479.1797" y2="479.1797"/><text fill="#000000" font-family="sans-serif" font-size="13" lengthAdjust="spacing" textLength="146" x="618.5" y="474.3232">query available time slots</text><polygon fill="#181818" points="1061,505.5313,1071,509.5313,1061,513.5313,1065,509.5313" style="stroke:#181818;stroke-width:1.0;"/><line style="stroke:#181818;stroke-width:1.0;" x1="785" x2="1067" y1="509.5313" y2="509.5313"/><text fill="#000000" font-family="sans-serif" font-size="13" lengthAdjust="spacing" textLength="160" x="792" y="504.6748">fetch available slots for date</text><polygon fill="#181818" points="796,535.8828,786,539.8828,796,543.8828,792,539.8828" style="stroke:#181818;stroke-width:1.0;"/><line style="stroke:#181818;stroke-width:1.0;stroke-dasharray:2.0,2.0;" x1="790" x2="1072" y1="539.8828" y2="539.8828"/><text fill="#000000" font-family="sans-serif" font-size="13" lengthAdjust="spacing" textLength="94" x="802" y="535.0264">return time slots</text><polygon fill="#181818" points="622.5,566.2344,612.5,570.2344,622.5,574.2344,618.5,570.2344" style="stroke:#181818;stroke-width:1.0;"/><line style="stroke:#181818;stroke-width:1.0;stroke-dasharray:2.0,2.0;" x1="616.5" x2="784" y1="570.2344" y2="570.2344"/><text fill="#000000" font-family="sans-serif" font-size="13" lengthAdjust="spacing" textLength="65" x="628.5" y="565.3779">return slots</text><polygon fill="#181818" points="440.5,596.5859,430.5,600.5859,440.5,604.5859,436.5,600.5859" style="stroke:#181818;stroke-width:1.0;"/><line style="stroke:#181818;stroke-width:1.0;stroke-dasharray:2.0,2.0;" x1="434.5" x2="610.5" y1="600.5859" y2="600.5859"/><text fill="#000000" font-family="sans-serif" font-size="13" lengthAdjust="spacing" textLength="65" x="446.5" y="595.7295">return slots</text><polygon fill="#181818" points="258.5,626.9375,248.5,630.9375,258.5,634.9375,254.5,630.9375" style="stroke:#181818;stroke-width:1.0;"/><line style="stroke:#181818;stroke-width:1.0;stroke-dasharray:2.0,2.0;" x1="252.5" x2="428.5" y1="630.9375" y2="630.9375"/><text fill="#000000" font-family="sans-serif" font-size="13" lengthAdjust="spacing" textLength="144" x="264.5" y="626.0811">show available time slots</text><polygon fill="#181818" points="235.5,657.2891,245.5,661.2891,235.5,665.2891,239.5,661.2891" style="stroke:#181818;stroke-width:1.0;"/><line style="stroke:#181818;stroke-width:1.0;" x1="22.5" x2="241.5" y1="661.2891" y2="661.2891"/><text fill="#000000" font-family="sans-serif" font-size="13" lengthAdjust="spacing" textLength="180" x="29.5" y="656.4326">selects time and clicks confirm</text><polygon fill="#181818" points="417.5,687.6406,427.5,691.6406,417.5,695.6406,421.5,691.6406" style="stroke:#181818;stroke-width:1.0;"/><line style="stroke:#181818;stroke-width:1.0;" x1="247.5" x2="423.5" y1="691.6406" y2="691.6406"/><text fill="#000000" font-family="sans-serif" font-size="13" lengthAdjust="spacing" textLength="156" x="254.5" y="686.7842">submit appointment details</text><polygon fill="#181818" points="599.5,717.9922,609.5,721.9922,599.5,725.9922,603.5,721.9922" style="stroke:#181818;stroke-width:1.0;"/><line style="stroke:#181818;stroke-width:1.0;" x1="429.5" x2="605.5" y1="721.9922" y2="721.9922"/><text fill="#000000" font-family="sans-serif" font-size="13" lengthAdjust="spacing" textLength="121" x="436.5" y="717.1357">process appointment</text><polygon fill="#181818" points="936,748.3438,946,752.3438,936,756.3438,940,752.3438" style="stroke:#181818;stroke-width:1.0;"/><line style="stroke:#181818;stroke-width:1.0;" x1="611.5" x2="942" y1="752.3438" y2="752.3438"/><text fill="#000000" font-family="sans-serif" font-size="13" lengthAdjust="spacing" textLength="183" x="618.5" y="747.4873">validate and create appointment</text><polygon fill="#181818" points="1061,778.6953,1071,782.6953,1061,786.6953,1065,782.6953" style="stroke:#181818;stroke-width:1.0;"/><line style="stroke:#181818;stroke-width:1.0;" x1="948" x2="1067" y1="782.6953" y2="782.6953"/><text fill="#000000" font-family="sans-serif" font-size="13" lengthAdjust="spacing" textLength="101" x="955" y="777.8389">save appointment</text><polygon fill="#181818" points="1184.5,809.0469,1194.5,813.0469,1184.5,817.0469,1188.5,813.0469" style="stroke:#181818;stroke-width:1.0;"/><line style="stroke:#181818;stroke-width:1.0;" x1="948" x2="1190.5" y1="813.0469" y2="813.0469"/><text fill="#000000" font-family="sans-serif" font-size="13" lengthAdjust="spacing" textLength="137" x="955" y="808.1904">send confirmation email</text><polygon fill="#181818" points="959,839.3984,949,843.3984,959,847.3984,955,843.3984" style="stroke:#181818;stroke-width:1.0;"/><line style="stroke:#181818;stroke-width:1.0;stroke-dasharray:2.0,2.0;" x1="953" x2="1195.5" y1="843.3984" y2="843.3984"/><text fill="#000000" font-family="sans-serif" font-size="13" lengthAdjust="spacing" textLength="99" x="965" y="838.542">confirmation sent</text><polygon fill="#181818" points="622.5,869.75,612.5,873.75,622.5,877.75,618.5,873.75" style="stroke:#181818;stroke-width:1.0;"/><line style="stroke:#181818;stroke-width:1.0;stroke-dasharray:2.0,2.0;" x1="616.5" x2="947" y1="873.75" y2="873.75"/><text fill="#000000" font-family="sans-serif" font-size="13" lengthAdjust="spacing" textLength="118" x="628.5" y="868.8936">appointment created</text><polygon fill="#181818" points="440.5,900.1016,430.5,904.1016,440.5,908.1016,436.5,904.1016" style="stroke:#181818;stroke-width:1.0;"/><line style="stroke:#181818;stroke-width:1.0;stroke-dasharray:2.0,2.0;" x1="434.5" x2="610.5" y1="904.1016" y2="904.1016"/><text fill="#000000" font-family="sans-serif" font-size="13" lengthAdjust="spacing" textLength="107" x="446.5" y="899.2451">return confirmation</text><polygon fill="#181818" points="258.5,930.4531,248.5,934.4531,258.5,938.4531,254.5,934.4531" style="stroke:#181818;stroke-width:1.0;"/><line style="stroke:#181818;stroke-width:1.0;stroke-dasharray:2.0,2.0;" x1="252.5" x2="428.5" y1="934.4531" y2="934.4531"/><text fill="#000000" font-family="sans-serif" font-size="13" lengthAdjust="spacing" textLength="104" x="264.5" y="929.5967">show confirmation</text><!--SRC=[XPF1Jjmm48RlUOeHbvP3rFiUAh42r9Lwe6fHpxFEPB58R3DsKl7s7TjaSOA1KwBCvzypdsDKmJBSU-B68GUjj4CJuEAMhGbaEhW_N01wUQphTqoUJC2WhO6V-4mCN__I4Qxk3fTfWRoiLrmvDsXLBCYOSslirqJy33_GT4FCF9YUqGUUL9YOSdH2rgkkxOYwpCqVDZqJU-rbAaKbkLzJDx9mWD_4irQKYFIbQRwqRGjxQn-rEO734u5yQA8wQB-B8DY1mLcVC927OE5Oe8sK1H8fGZ4zJUG3Y0mwMTRal_cydMyY4K7dFWE5433hsi5JUjR0J0XwlHUkfw0U2Wv4D9nPGTeYb4ca6-Wmu19Jz9PgxxPMJFiQagPRPB7yNkAkbf1T_z4ZWHzia0O7KkdFUQCyb_nvXZIGO-g9cRguRLq-pdAeU1m8mhBDndvMLLPhogivDUUlO6AWbtkNkgjBVvksLLyqjPLTJ7Fsz63_rPlDiYN7QXD6kTIWcF1ZssbvDAtaJZzwKDRqciULQJyTHosYY-2EWZImyUpOohdv4bnKlrph7Smuw2WhxndRenN_0Yx6FSxlrVFrZfF4fDns7fRIDS_rjjnyHVaoxZm3RkrHLp-PCgjoG6NvFm00]--></g></svg>