<?xml version="1.0" encoding="us-ascii" standalone="no"?><svg xmlns="http://www.w3.org/2000/svg" xmlns:xlink="http://www.w3.org/1999/xlink" contentStyleType="text/css" height="966px" preserveAspectRatio="none" style="width:599px;height:966px;background:#FFFFFF;" version="1.1" viewBox="0 0 599 966" width="599px" zoomAndPan="magnify"><defs/><g><rect fill="#FFFFFF" height="73.7031" style="stroke:#181818;stroke-width:1.0;" width="10" x="307.5" y="114.9609"/><rect fill="#FFFFFF" height="73.7031" style="stroke:#181818;stroke-width:1.0;" width="10" x="307.5" y="249.3672"/><rect fill="#FFFFFF" height="73.7031" style="stroke:#181818;stroke-width:1.0;" width="10" x="307.5" y="378.7734"/><rect fill="#FFFFFF" height="36.3516" style="stroke:#181818;stroke-width:1.0;" width="10" x="307.5" y="489.8281"/><rect fill="none" height="122.4063" style="stroke:#000000;stroke-width:1.5;" width="583.5" x="10" y="338.0703"/><rect fill="none" height="122.4063" style="stroke:#000000;stroke-width:1.5;" width="461.5" x="10" y="548.1797"/><rect fill="none" height="183.1094" style="stroke:#000000;stroke-width:1.5;" width="461.5" x="10" y="684.5859"/><line style="stroke:#181818;stroke-width:0.5;stroke-dasharray:5.0,5.0;" x1="37" x2="37" y1="82.6094" y2="884.6953"/><line style="stroke:#181818;stroke-width:0.5;stroke-dasharray:5.0,5.0;" x1="312.5" x2="312.5" y1="82.6094" y2="884.6953"/><text fill="#000000" font-family="sans-serif" font-size="14" lengthAdjust="spacing" textLength="29" x="20" y="79.5332">User</text><ellipse cx="37.5" cy="13.5" fill="#E2E2F0" rx="8" ry="8" style="stroke:#181818;stroke-width:0.5;"/><path d="M37.5,21.5 L37.5,48.5 M24.5,29.5 L50.5,29.5 M37.5,48.5 L24.5,63.5 M37.5,48.5 L50.5,63.5 " fill="none" style="stroke:#181818;stroke-width:0.5;"/><text fill="#000000" font-family="sans-serif" font-size="14" lengthAdjust="spacing" textLength="29" x="20" y="898.2285">User</text><ellipse cx="37.5" cy="909.8047" fill="#E2E2F0" rx="8" ry="8" style="stroke:#181818;stroke-width:0.5;"/><path d="M37.5,917.8047 L37.5,944.8047 M24.5,925.8047 L50.5,925.8047 M37.5,944.8047 L24.5,959.8047 M37.5,944.8047 L50.5,959.8047 " fill="none" style="stroke:#181818;stroke-width:0.5;"/><rect fill="#E2E2F0" height="31.6094" rx="2.5" ry="2.5" style="stroke:#181818;stroke-width:0.5;" width="60" x="282.5" y="50"/><text fill="#000000" font-family="sans-serif" font-size="14" lengthAdjust="spacing" textLength="46" x="289.5" y="71.5332">System</text><rect fill="#E2E2F0" height="31.6094" rx="2.5" ry="2.5" style="stroke:#181818;stroke-width:0.5;" width="60" x="282.5" y="883.6953"/><text fill="#000000" font-family="sans-serif" font-size="14" lengthAdjust="spacing" textLength="46" x="289.5" y="905.2285">System</text><rect fill="#FFFFFF" height="73.7031" style="stroke:#181818;stroke-width:1.0;" width="10" x="307.5" y="114.9609"/><rect fill="#FFFFFF" height="73.7031" style="stroke:#181818;stroke-width:1.0;" width="10" x="307.5" y="249.3672"/><rect fill="#FFFFFF" height="73.7031" style="stroke:#181818;stroke-width:1.0;" width="10" x="307.5" y="378.7734"/><rect fill="#FFFFFF" height="36.3516" style="stroke:#181818;stroke-width:1.0;" width="10" x="307.5" y="489.8281"/><polygon fill="#181818" points="295.5,110.9609,305.5,114.9609,295.5,118.9609,299.5,114.9609" style="stroke:#181818;stroke-width:1.0;"/><line style="stroke:#181818;stroke-width:1.0;" x1="37.5" x2="301.5" y1="114.9609" y2="114.9609"/><text fill="#000000" font-family="sans-serif" font-size="13" lengthAdjust="spacing" textLength="216" x="44.5" y="110.1045">navigates to book appointment page()</text><line style="stroke:#181818;stroke-width:1.0;" x1="317.5" x2="359.5" y1="145.3125" y2="145.3125"/><line style="stroke:#181818;stroke-width:1.0;" x1="359.5" x2="359.5" y1="145.3125" y2="158.3125"/><line style="stroke:#181818;stroke-width:1.0;" x1="318.5" x2="359.5" y1="158.3125" y2="158.3125"/><polygon fill="#181818" points="328.5,154.3125,318.5,158.3125,328.5,162.3125,324.5,158.3125" style="stroke:#181818;stroke-width:1.0;"/><text fill="#000000" font-family="sans-serif" font-size="13" lengthAdjust="spacing" textLength="225" x="324.5" y="140.4561">fetches list of categories and services()</text><polygon fill="#181818" points="48.5,184.6641,38.5,188.6641,48.5,192.6641,44.5,188.6641" style="stroke:#181818;stroke-width:1.0;"/><line style="stroke:#181818;stroke-width:1.0;stroke-dasharray:2.0,2.0;" x1="42.5" x2="311.5" y1="188.6641" y2="188.6641"/><text fill="#000000" font-family="sans-serif" font-size="13" lengthAdjust="spacing" textLength="185" x="54.5" y="183.8076">shows categories and services()</text><polygon fill="#181818" points="300.5,215.0156,310.5,219.0156,300.5,223.0156,304.5,219.0156" style="stroke:#181818;stroke-width:1.0;"/><line style="stroke:#181818;stroke-width:1.0;" x1="37.5" x2="306.5" y1="219.0156" y2="219.0156"/><text fill="#000000" font-family="sans-serif" font-size="13" lengthAdjust="spacing" textLength="223" x="44.5" y="214.1592">user selects services for appointment()</text><polygon fill="#181818" points="295.5,245.3672,305.5,249.3672,295.5,253.3672,299.5,249.3672" style="stroke:#181818;stroke-width:1.0;"/><line style="stroke:#181818;stroke-width:1.0;" x1="37.5" x2="301.5" y1="249.3672" y2="249.3672"/><text fill="#000000" font-family="sans-serif" font-size="13" lengthAdjust="spacing" textLength="172" x="44.5" y="244.5107">selects date for appointment()</text><line style="stroke:#181818;stroke-width:1.0;" x1="317.5" x2="359.5" y1="279.7188" y2="279.7188"/><line style="stroke:#181818;stroke-width:1.0;" x1="359.5" x2="359.5" y1="279.7188" y2="292.7188"/><line style="stroke:#181818;stroke-width:1.0;" x1="318.5" x2="359.5" y1="292.7188" y2="292.7188"/><polygon fill="#181818" points="328.5,288.7188,318.5,292.7188,328.5,296.7188,324.5,292.7188" style="stroke:#181818;stroke-width:1.0;"/><text fill="#000000" font-family="sans-serif" font-size="13" lengthAdjust="spacing" textLength="257" x="324.5" y="274.8623">fetches available time slot for selected date()</text><polygon fill="#181818" points="48.5,319.0703,38.5,323.0703,48.5,327.0703,44.5,323.0703" style="stroke:#181818;stroke-width:1.0;"/><line style="stroke:#181818;stroke-width:1.0;stroke-dasharray:2.0,2.0;" x1="42.5" x2="311.5" y1="323.0703" y2="323.0703"/><text fill="#000000" font-family="sans-serif" font-size="13" lengthAdjust="spacing" textLength="194" x="54.5" y="318.2139">shows list of available time slots()</text><path d="M10,338.0703 L83,338.0703 L83,346.4219 L73,356.4219 L10,356.4219 L10,338.0703 " fill="#EEEEEE" style="stroke:#000000;stroke-width:1.5;"/><rect fill="none" height="122.4063" style="stroke:#000000;stroke-width:1.5;" width="583.5" x="10" y="338.0703"/><text fill="#000000" font-family="sans-serif" font-size="13" font-weight="bold" lengthAdjust="spacing" textLength="28" x="25" y="352.5654">loop</text><text fill="#000000" font-family="sans-serif" font-size="11" font-weight="bold" lengthAdjust="spacing" textLength="372" x="98" y="351.4893">[user selects another date [while no suitable time slot is selected]]</text><polygon fill="#181818" points="295.5,374.7734,305.5,378.7734,295.5,382.7734,299.5,378.7734" style="stroke:#181818;stroke-width:1.0;"/><line style="stroke:#181818;stroke-width:1.0;" x1="37.5" x2="301.5" y1="378.7734" y2="378.7734"/><text fill="#000000" font-family="sans-serif" font-size="13" lengthAdjust="spacing" textLength="199" x="44.5" y="373.917">selects new date for appointment()</text><line style="stroke:#181818;stroke-width:1.0;" x1="317.5" x2="359.5" y1="409.125" y2="409.125"/><line style="stroke:#181818;stroke-width:1.0;" x1="359.5" x2="359.5" y1="409.125" y2="422.125"/><line style="stroke:#181818;stroke-width:1.0;" x1="318.5" x2="359.5" y1="422.125" y2="422.125"/><polygon fill="#181818" points="328.5,418.125,318.5,422.125,328.5,426.125,324.5,422.125" style="stroke:#181818;stroke-width:1.0;"/><text fill="#000000" font-family="sans-serif" font-size="13" lengthAdjust="spacing" textLength="257" x="324.5" y="404.2686">fetches available time slot for selected date()</text><polygon fill="#181818" points="48.5,448.4766,38.5,452.4766,48.5,456.4766,44.5,452.4766" style="stroke:#181818;stroke-width:1.0;"/><line style="stroke:#181818;stroke-width:1.0;stroke-dasharray:2.0,2.0;" x1="42.5" x2="311.5" y1="452.4766" y2="452.4766"/><text fill="#000000" font-family="sans-serif" font-size="13" lengthAdjust="spacing" textLength="194" x="54.5" y="447.6201">shows list of available time slots()</text><polygon fill="#181818" points="295.5,485.8281,305.5,489.8281,295.5,493.8281,299.5,489.8281" style="stroke:#181818;stroke-width:1.0;"/><line style="stroke:#181818;stroke-width:1.0;" x1="37.5" x2="301.5" y1="489.8281" y2="489.8281"/><text fill="#000000" font-family="sans-serif" font-size="13" lengthAdjust="spacing" textLength="251" x="44.5" y="484.9717">selects preferred time slot for appointment()</text><line style="stroke:#181818;stroke-width:1.0;" x1="317.5" x2="359.5" y1="525.1797" y2="525.1797"/><line style="stroke:#181818;stroke-width:1.0;" x1="359.5" x2="359.5" y1="525.1797" y2="538.1797"/><line style="stroke:#181818;stroke-width:1.0;" x1="312.5" x2="359.5" y1="538.1797" y2="538.1797"/><polygon fill="#181818" points="322.5,534.1797,312.5,538.1797,322.5,542.1797,318.5,538.1797" style="stroke:#181818;stroke-width:1.0;"/><text fill="#000000" font-family="sans-serif" font-size="13" lengthAdjust="spacing" textLength="159" x="324.5" y="520.3232">checks if user is logged in()</text><path d="M10,548.1797 L71,548.1797 L71,556.5313 L61,566.5313 L10,566.5313 L10,548.1797 " fill="#EEEEEE" style="stroke:#000000;stroke-width:1.5;"/><rect fill="none" height="122.4063" style="stroke:#000000;stroke-width:1.5;" width="461.5" x="10" y="548.1797"/><text fill="#000000" font-family="sans-serif" font-size="13" font-weight="bold" lengthAdjust="spacing" textLength="16" x="25" y="562.6748">alt</text><text fill="#000000" font-family="sans-serif" font-size="11" font-weight="bold" lengthAdjust="spacing" textLength="101" x="86" y="561.5986">[user is logged in]</text><polygon fill="#181818" points="48.5,584.8828,38.5,588.8828,48.5,592.8828,44.5,588.8828" style="stroke:#181818;stroke-width:1.0;"/><line style="stroke:#181818;stroke-width:1.0;stroke-dasharray:2.0,2.0;" x1="42.5" x2="311.5" y1="588.8828" y2="588.8828"/><text fill="#000000" font-family="sans-serif" font-size="13" lengthAdjust="spacing" textLength="141" x="54.5" y="584.0264">shows user information()</text><polygon fill="#181818" points="300.5,615.2344,310.5,619.2344,300.5,623.2344,304.5,619.2344" style="stroke:#181818;stroke-width:1.0;"/><line style="stroke:#181818;stroke-width:1.0;" x1="37.5" x2="306.5" y1="619.2344" y2="619.2344"/><text fill="#000000" font-family="sans-serif" font-size="13" lengthAdjust="spacing" textLength="153" x="44.5" y="614.3779">user confirms information()</text><line style="stroke:#181818;stroke-width:1.0;" x1="312.5" x2="354.5" y1="649.5859" y2="649.5859"/><line style="stroke:#181818;stroke-width:1.0;" x1="354.5" x2="354.5" y1="649.5859" y2="662.5859"/><line style="stroke:#181818;stroke-width:1.0;" x1="313.5" x2="354.5" y1="662.5859" y2="662.5859"/><polygon fill="#181818" points="323.5,658.5859,313.5,662.5859,323.5,666.5859,319.5,662.5859" style="stroke:#181818;stroke-width:1.0;"/><text fill="#000000" font-family="sans-serif" font-size="13" lengthAdjust="spacing" textLength="140" x="319.5" y="644.7295">appointment is created()</text><path d="M10,684.5859 L71,684.5859 L71,692.9375 L61,702.9375 L10,702.9375 L10,684.5859 " fill="#EEEEEE" style="stroke:#000000;stroke-width:1.5;"/><rect fill="none" height="183.1094" style="stroke:#000000;stroke-width:1.5;" width="461.5" x="10" y="684.5859"/><text fill="#000000" font-family="sans-serif" font-size="13" font-weight="bold" lengthAdjust="spacing" textLength="16" x="25" y="699.0811">alt</text><text fill="#000000" font-family="sans-serif" font-size="11" font-weight="bold" lengthAdjust="spacing" textLength="122" x="86" y="698.0049">[user is not logged in]</text><polygon fill="#181818" points="48.5,721.2891,38.5,725.2891,48.5,729.2891,44.5,725.2891" style="stroke:#181818;stroke-width:1.0;"/><line style="stroke:#181818;stroke-width:1.0;stroke-dasharray:2.0,2.0;" x1="42.5" x2="311.5" y1="725.2891" y2="725.2891"/><text fill="#000000" font-family="sans-serif" font-size="13" lengthAdjust="spacing" textLength="130" x="54.5" y="720.4326">prompts user to login()</text><polygon fill="#181818" points="300.5,751.6406,310.5,755.6406,300.5,759.6406,304.5,755.6406" style="stroke:#181818;stroke-width:1.0;"/><line style="stroke:#181818;stroke-width:1.0;" x1="37.5" x2="306.5" y1="755.6406" y2="755.6406"/><text fill="#000000" font-family="sans-serif" font-size="13" lengthAdjust="spacing" textLength="75" x="44.5" y="750.7842">user logs in()</text><polygon fill="#181818" points="48.5,781.9922,38.5,785.9922,48.5,789.9922,44.5,785.9922" style="stroke:#181818;stroke-width:1.0;"/><line style="stroke:#181818;stroke-width:1.0;stroke-dasharray:2.0,2.0;" x1="42.5" x2="311.5" y1="785.9922" y2="785.9922"/><text fill="#000000" font-family="sans-serif" font-size="13" lengthAdjust="spacing" textLength="141" x="54.5" y="781.1357">shows user information()</text><polygon fill="#181818" points="300.5,812.3438,310.5,816.3438,300.5,820.3438,304.5,816.3438" style="stroke:#181818;stroke-width:1.0;"/><line style="stroke:#181818;stroke-width:1.0;" x1="37.5" x2="306.5" y1="816.3438" y2="816.3438"/><text fill="#000000" font-family="sans-serif" font-size="13" lengthAdjust="spacing" textLength="153" x="44.5" y="811.4873">confirms user information()</text><line style="stroke:#181818;stroke-width:1.0;" x1="312.5" x2="354.5" y1="846.6953" y2="846.6953"/><line style="stroke:#181818;stroke-width:1.0;" x1="354.5" x2="354.5" y1="846.6953" y2="859.6953"/><line style="stroke:#181818;stroke-width:1.0;" x1="313.5" x2="354.5" y1="859.6953" y2="859.6953"/><polygon fill="#181818" points="323.5,855.6953,313.5,859.6953,323.5,863.6953,319.5,859.6953" style="stroke:#181818;stroke-width:1.0;"/><text fill="#000000" font-family="sans-serif" font-size="13" lengthAdjust="spacing" textLength="140" x="319.5" y="841.8389">appointment is created()</text><!--SRC=[hLIxRiCm3Dpz5HpReJ-GeJzHT2ewC39j4v55GM8SzE_BE77gn8_MG4TBTwUxesHqAWdUCwKYOb9s734el7rbfROepXlmydhzXXq4xBX6fGmgi1Sv0COe7BGbeqMiwUcvGAVS6MYGkRB7EXMfQqp5SrQG2fp1QqbiInXAi6CxTfHDR20RktUpWzp8AQymIdeqCCrnF2zaykGqtxXGMHUZFAOr8GwSyYm_nM-8ZXsonxqdK6u9iXVj1IydKDaViLB0KDsCpa8BNYJU9ySWsjXtd-RZrB2f185yP7rmnlbcxBC0MEmbq6cf6u17Hm3_qC-FoCQ60AOTKIYBvQ77H1MbP6VVMzfy1ooWEsJWwZ8EAzTBNPikX_dHeTSfT2Nw1HlCN8lA4lguyw_0IQWujNa2d_4zVkpcn2KoawMX-zx69krY_M8q9ccZNgtQtyJGlERJzZDmM9tutsBV4i_2jyR-1W00]--></g></svg>