<svg xmlns="http://www.w3.org/2000/svg" xmlns:xlink="http://www.w3.org/1999/xlink" contentStyleType="text/css" height="1156px" preserveAspectRatio="none" style="width:1532px;height:1156px;background:#FFFFFF;" version="1.1" viewBox="0 0 1532 1156" width="1532px" zoomAndPan="magnify"><defs/><g><line style="stroke:#181818;stroke-width:0.5;stroke-dasharray:5.0,5.0;" x1="22" x2="22" y1="83.6211" y2="1073.6426"/><line style="stroke:#181818;stroke-width:0.5;stroke-dasharray:5.0,5.0;" x1="248.1426" x2="248.1426" y1="83.6211" y2="1073.6426"/><line style="stroke:#181818;stroke-width:0.5;stroke-dasharray:5.0,5.0;" x1="430.3594" x2="430.3594" y1="83.6211" y2="1073.6426"/><line style="stroke:#181818;stroke-width:0.5;stroke-dasharray:5.0,5.0;" x1="612.8862" x2="612.8862" y1="83.6211" y2="1073.6426"/><line style="stroke:#181818;stroke-width:0.5;stroke-dasharray:5.0,5.0;" x1="851.6196" x2="851.6196" y1="83.6211" y2="1073.6426"/><line style="stroke:#181818;stroke-width:0.5;stroke-dasharray:5.0,5.0;" x1="1068.8188" x2="1068.8188" y1="83.6211" y2="1073.6426"/><line style="stroke:#181818;stroke-width:0.5;stroke-dasharray:5.0,5.0;" x1="1229.5493" x2="1229.5493" y1="83.6211" y2="1073.6426"/><line style="stroke:#181818;stroke-width:0.5;stroke-dasharray:5.0,5.0;" x1="1353.7007" x2="1353.7007" y1="83.6211" y2="1073.6426"/><line style="stroke:#181818;stroke-width:0.5;stroke-dasharray:5.0,5.0;" x1="1475.7554" x2="1475.7554" y1="83.6211" y2="1073.6426"/><text fill="#000000" font-family="sans-serif" font-size="14" lengthAdjust="spacing" textLength="29.5586" x="5" y="80.1074">User</text><ellipse cx="22.7793" cy="13.5" fill="#E2E2F0" rx="8" ry="8" style="stroke:#181818;stroke-width:0.5;"/><path d="M22.7793,21.5 L22.7793,48.5 M9.7793,29.5 L35.7793,29.5 M22.7793,48.5 L9.7793,63.5 M22.7793,48.5 L35.7793,63.5 " fill="none" style="stroke:#181818;stroke-width:0.5;"/><text fill="#000000" font-family="sans-serif" font-size="14" lengthAdjust="spacing" textLength="29.5586" x="5" y="1087.75">User</text><ellipse cx="22.7793" cy="1099.7637" fill="#E2E2F0" rx="8" ry="8" style="stroke:#181818;stroke-width:0.5;"/><path d="M22.7793,1107.7637 L22.7793,1134.7637 M9.7793,1115.7637 L35.7793,1115.7637 M22.7793,1134.7637 L9.7793,1149.7637 M22.7793,1134.7637 L35.7793,1149.7637 " fill="none" style="stroke:#181818;stroke-width:0.5;"/><rect fill="#E2E2F0" height="32.6211" rx="2.5" ry="2.5" style="stroke:#181818;stroke-width:0.5;" width="87.9238" x="205.1426" y="50"/><text fill="#000000" font-family="sans-serif" font-size="14" lengthAdjust="spacing" textLength="73.9238" x="212.1426" y="72.1074">Frontend UI</text><rect fill="#E2E2F0" height="32.6211" rx="2.5" ry="2.5" style="stroke:#181818;stroke-width:0.5;" width="87.9238" x="205.1426" y="1072.6426"/><text fill="#000000" font-family="sans-serif" font-size="14" lengthAdjust="spacing" textLength="73.9238" x="212.1426" y="1094.75">Frontend UI</text><rect fill="#E2E2F0" height="32.6211" rx="2.5" ry="2.5" style="stroke:#181818;stroke-width:0.5;" width="199.9717" x="331.3594" y="50"/><text fill="#000000" font-family="sans-serif" font-size="14" lengthAdjust="spacing" textLength="185.9717" x="338.3594" y="72.1074">Presentation Layer (Web API)</text><rect fill="#E2E2F0" height="32.6211" rx="2.5" ry="2.5" style="stroke:#181818;stroke-width:0.5;" width="199.9717" x="331.3594" y="1072.6426"/><text fill="#000000" font-family="sans-serif" font-size="14" lengthAdjust="spacing" textLength="185.9717" x="338.3594" y="1094.75">Presentation Layer (Web API)</text><rect fill="#E2E2F0" height="32.6211" rx="2.5" ry="2.5" style="stroke:#181818;stroke-width:0.5;" width="121.3994" x="552.8862" y="50"/><text fill="#000000" font-family="sans-serif" font-size="14" lengthAdjust="spacing" textLength="107.3994" x="559.8862" y="72.1074">Application Layer</text><rect fill="#E2E2F0" height="32.6211" rx="2.5" ry="2.5" style="stroke:#181818;stroke-width:0.5;" width="121.3994" x="552.8862" y="1072.6426"/><text fill="#000000" font-family="sans-serif" font-size="14" lengthAdjust="spacing" textLength="107.3994" x="559.8862" y="1094.75">Application Layer</text><rect fill="#E2E2F0" height="32.6211" rx="2.5" ry="2.5" style="stroke:#181818;stroke-width:0.5;" width="213.1992" x="745.6196" y="50"/><text fill="#000000" font-family="sans-serif" font-size="14" lengthAdjust="spacing" textLength="199.1992" x="752.6196" y="72.1074">Command Handler (Application)</text><rect fill="#E2E2F0" height="32.6211" rx="2.5" ry="2.5" style="stroke:#181818;stroke-width:0.5;" width="213.1992" x="745.6196" y="1072.6426"/><text fill="#000000" font-family="sans-serif" font-size="14" lengthAdjust="spacing" textLength="199.1992" x="752.6196" y="1094.75">Command Handler (Application)</text><rect fill="#E2E2F0" height="32.6211" rx="2.5" ry="2.5" style="stroke:#181818;stroke-width:0.5;" width="200.7305" x="968.8188" y="50"/><text fill="#000000" font-family="sans-serif" font-size="14" lengthAdjust="spacing" textLength="186.7305" x="975.8188" y="72.1074">Query Handler (Infrastructure)</text><rect fill="#E2E2F0" height="32.6211" rx="2.5" ry="2.5" style="stroke:#181818;stroke-width:0.5;" width="200.7305" x="968.8188" y="1072.6426"/><text fill="#000000" font-family="sans-serif" font-size="14" lengthAdjust="spacing" textLength="186.7305" x="975.8188" y="1094.75">Query Handler (Infrastructure)</text><rect fill="#E2E2F0" height="32.6211" rx="2.5" ry="2.5" style="stroke:#181818;stroke-width:0.5;" width="101.1514" x="1179.5493" y="50"/><text fill="#000000" font-family="sans-serif" font-size="14" lengthAdjust="spacing" textLength="87.1514" x="1186.5493" y="72.1074">Domain Layer</text><rect fill="#E2E2F0" height="32.6211" rx="2.5" ry="2.5" style="stroke:#181818;stroke-width:0.5;" width="101.1514" x="1179.5493" y="1072.6426"/><text fill="#000000" font-family="sans-serif" font-size="14" lengthAdjust="spacing" textLength="87.1514" x="1186.5493" y="1094.75">Domain Layer</text><rect fill="#E2E2F0" height="32.6211" rx="2.5" ry="2.5" style="stroke:#181818;stroke-width:0.5;" width="126.0547" x="1290.7007" y="50"/><text fill="#000000" font-family="sans-serif" font-size="14" lengthAdjust="spacing" textLength="112.0547" x="1297.7007" y="72.1074">Persistence Layer</text><rect fill="#E2E2F0" height="32.6211" rx="2.5" ry="2.5" style="stroke:#181818;stroke-width:0.5;" width="126.0547" x="1290.7007" y="1072.6426"/><text fill="#000000" font-family="sans-serif" font-size="14" lengthAdjust="spacing" textLength="112.0547" x="1297.7007" y="1094.75">Persistence Layer</text><rect fill="#E2E2F0" height="32.6211" rx="2.5" ry="2.5" style="stroke:#181818;stroke-width:0.5;" width="99.5791" x="1426.7554" y="50"/><text fill="#000000" font-family="sans-serif" font-size="14" lengthAdjust="spacing" textLength="85.5791" x="1433.7554" y="72.1074">Email Service</text><rect fill="#E2E2F0" height="32.6211" rx="2.5" ry="2.5" style="stroke:#181818;stroke-width:0.5;" width="99.5791" x="1426.7554" y="1072.6426"/><text fill="#000000" font-family="sans-serif" font-size="14" lengthAdjust="spacing" textLength="85.5791" x="1433.7554" y="1094.75">Email Service</text><polygon fill="#181818" points="237.1045,112.9121,247.1045,116.9121,237.1045,120.9121,241.1045,116.9121" style="stroke:#181818;stroke-width:1.0;"/><line style="stroke:#181818;stroke-width:1.0;" x1="22.7793" x2="243.1045" y1="116.9121" y2="116.9121"/><text fill="#000000" font-family="sans-serif" font-size="13" lengthAdjust="spacing" textLength="151.7852" x="29.7793" y="111.6494">navigates to booking page</text><polygon fill="#181818" points="419.3452,144.2031,429.3452,148.2031,419.3452,152.2031,423.3452,148.2031" style="stroke:#181818;stroke-width:1.0;"/><line style="stroke:#181818;stroke-width:1.0;" x1="249.1045" x2="425.3452" y1="148.2031" y2="148.2031"/><text fill="#000000" font-family="sans-serif" font-size="13" lengthAdjust="spacing" textLength="158.2407" x="256.1045" y="142.9404">request categories/services</text><polygon fill="#181818" points="601.5859,175.4941,611.5859,179.4941,601.5859,183.4941,605.5859,179.4941" style="stroke:#181818;stroke-width:1.0;"/><line style="stroke:#181818;stroke-width:1.0;" x1="431.3452" x2="607.5859" y1="179.4941" y2="179.4941"/><text fill="#000000" font-family="sans-serif" font-size="13" lengthAdjust="spacing" textLength="158.2407" x="438.3452" y="174.2314">request categories/services</text><polygon fill="#181818" points="1057.1841,206.7852,1067.1841,210.7852,1057.1841,214.7852,1061.1841,210.7852" style="stroke:#181818;stroke-width:1.0;"/><line style="stroke:#181818;stroke-width:1.0;" x1="613.5859" x2="1063.1841" y1="210.7852" y2="210.7852"/><text fill="#000000" font-family="sans-serif" font-size="13" lengthAdjust="spacing" textLength="147.3989" x="620.5859" y="205.5225">query categories/services</text><polygon fill="#181818" points="1341.728,238.0762,1351.728,242.0762,1341.728,246.0762,1345.728,242.0762" style="stroke:#181818;stroke-width:1.0;"/><line style="stroke:#181818;stroke-width:1.0;" x1="1069.1841" x2="1347.728" y1="242.0762" y2="242.0762"/><text fill="#000000" font-family="sans-serif" font-size="13" lengthAdjust="spacing" textLength="168.3652" x="1076.1841" y="236.8135">fetch categories and services</text><polygon fill="#181818" points="1080.1841,269.3672,1070.1841,273.3672,1080.1841,277.3672,1076.1841,273.3672" style="stroke:#181818;stroke-width:1.0;"/><line style="stroke:#181818;stroke-width:1.0;stroke-dasharray:2.0,2.0;" x1="1074.1841" x2="1352.728" y1="273.3672" y2="273.3672"/><text fill="#000000" font-family="sans-serif" font-size="13" lengthAdjust="spacing" textLength="62.8735" x="1086.1841" y="268.1045">return data</text><polygon fill="#181818" points="624.5859,300.6582,614.5859,304.6582,624.5859,308.6582,620.5859,304.6582" style="stroke:#181818;stroke-width:1.0;"/><line style="stroke:#181818;stroke-width:1.0;stroke-dasharray:2.0,2.0;" x1="618.5859" x2="1068.1841" y1="304.6582" y2="304.6582"/><text fill="#000000" font-family="sans-serif" font-size="13" lengthAdjust="spacing" textLength="148.8398" x="630.5859" y="299.3955">return categories/services</text><polygon fill="#181818" points="442.3452,331.9492,432.3452,335.9492,442.3452,339.9492,438.3452,335.9492" style="stroke:#181818;stroke-width:1.0;"/><line style="stroke:#181818;stroke-width:1.0;stroke-dasharray:2.0,2.0;" x1="436.3452" x2="612.5859" y1="335.9492" y2="335.9492"/><text fill="#000000" font-family="sans-serif" font-size="13" lengthAdjust="spacing" textLength="62.8735" x="448.3452" y="330.6865">return data</text><polygon fill="#181818" points="260.1045,363.2402,250.1045,367.2402,260.1045,371.2402,256.1045,367.2402" style="stroke:#181818;stroke-width:1.0;"/><line style="stroke:#181818;stroke-width:1.0;stroke-dasharray:2.0,2.0;" x1="254.1045" x2="430.3452" y1="367.2402" y2="367.2402"/><text fill="#000000" font-family="sans-serif" font-size="13" lengthAdjust="spacing" textLength="152.458" x="266.1045" y="361.9775">render categories/services</text><polygon fill="#181818" points="237.1045,394.5313,247.1045,398.5313,237.1045,402.5313,241.1045,398.5313" style="stroke:#181818;stroke-width:1.0;"/><line style="stroke:#181818;stroke-width:1.0;" x1="22.7793" x2="243.1045" y1="398.5313" y2="398.5313"/><text fill="#000000" font-family="sans-serif" font-size="13" lengthAdjust="spacing" textLength="202.3252" x="29.7793" y="393.2686">selects services and preferred date</text><polygon fill="#181818" points="419.3452,425.8223,429.3452,429.8223,419.3452,433.8223,423.3452,429.8223" style="stroke:#181818;stroke-width:1.0;"/><line style="stroke:#181818;stroke-width:1.0;" x1="249.1045" x2="425.3452" y1="429.8223" y2="429.8223"/><text fill="#000000" font-family="sans-serif" font-size="13" lengthAdjust="spacing" textLength="156.7998" x="256.1045" y="424.5596">request available time slots</text><polygon fill="#181818" points="601.5859,457.1133,611.5859,461.1133,601.5859,465.1133,605.5859,461.1133" style="stroke:#181818;stroke-width:1.0;"/><line style="stroke:#181818;stroke-width:1.0;" x1="431.3452" x2="607.5859" y1="461.1133" y2="461.1133"/><text fill="#000000" font-family="sans-serif" font-size="13" lengthAdjust="spacing" textLength="86.6963" x="438.3452" y="455.8506">fetch time slots</text><polygon fill="#181818" points="1057.1841,488.4043,1067.1841,492.4043,1057.1841,496.4043,1061.1841,492.4043" style="stroke:#181818;stroke-width:1.0;"/><line style="stroke:#181818;stroke-width:1.0;" x1="613.5859" x2="1063.1841" y1="492.4043" y2="492.4043"/><text fill="#000000" font-family="sans-serif" font-size="13" lengthAdjust="spacing" textLength="145.958" x="620.5859" y="487.1416">query available time slots</text><polygon fill="#181818" points="1341.728,519.6953,1351.728,523.6953,1341.728,527.6953,1345.728,523.6953" style="stroke:#181818;stroke-width:1.0;"/><line style="stroke:#181818;stroke-width:1.0;" x1="1069.1841" x2="1347.728" y1="523.6953" y2="523.6953"/><text fill="#000000" font-family="sans-serif" font-size="13" lengthAdjust="spacing" textLength="161.1479" x="1076.1841" y="518.4326">fetch available slots for date</text><polygon fill="#181818" points="1080.1841,550.9863,1070.1841,554.9863,1080.1841,558.9863,1076.1841,554.9863" style="stroke:#181818;stroke-width:1.0;"/><line style="stroke:#181818;stroke-width:1.0;stroke-dasharray:2.0,2.0;" x1="1074.1841" x2="1352.728" y1="554.9863" y2="554.9863"/><text fill="#000000" font-family="sans-serif" font-size="13" lengthAdjust="spacing" textLength="92.4727" x="1086.1841" y="549.7236">return time slots</text><polygon fill="#181818" points="624.5859,582.2773,614.5859,586.2773,624.5859,590.2773,620.5859,586.2773" style="stroke:#181818;stroke-width:1.0;"/><line style="stroke:#181818;stroke-width:1.0;stroke-dasharray:2.0,2.0;" x1="618.5859" x2="1068.1841" y1="586.2773" y2="586.2773"/><text fill="#000000" font-family="sans-serif" font-size="13" lengthAdjust="spacing" textLength="64.3018" x="630.5859" y="581.0146">return slots</text><polygon fill="#181818" points="442.3452,613.5684,432.3452,617.5684,442.3452,621.5684,438.3452,617.5684" style="stroke:#181818;stroke-width:1.0;"/><line style="stroke:#181818;stroke-width:1.0;stroke-dasharray:2.0,2.0;" x1="436.3452" x2="612.5859" y1="617.5684" y2="617.5684"/><text fill="#000000" font-family="sans-serif" font-size="13" lengthAdjust="spacing" textLength="64.3018" x="448.3452" y="612.3057">return slots</text><polygon fill="#181818" points="260.1045,644.8594,250.1045,648.8594,260.1045,652.8594,256.1045,648.8594" style="stroke:#181818;stroke-width:1.0;"/><line style="stroke:#181818;stroke-width:1.0;stroke-dasharray:2.0,2.0;" x1="254.1045" x2="430.3452" y1="648.8594" y2="648.8594"/><text fill="#000000" font-family="sans-serif" font-size="13" lengthAdjust="spacing" textLength="143.7871" x="266.1045" y="643.5967">show available time slots</text><polygon fill="#181818" points="237.1045,676.1504,247.1045,680.1504,237.1045,684.1504,241.1045,680.1504" style="stroke:#181818;stroke-width:1.0;"/><line style="stroke:#181818;stroke-width:1.0;" x1="22.7793" x2="243.1045" y1="680.1504" y2="680.1504"/><text fill="#000000" font-family="sans-serif" font-size="13" lengthAdjust="spacing" textLength="175.5508" x="29.7793" y="674.8877">selects time and clicks confirm</text><polygon fill="#181818" points="419.3452,707.4414,429.3452,711.4414,419.3452,715.4414,423.3452,711.4414" style="stroke:#181818;stroke-width:1.0;"/><line style="stroke:#181818;stroke-width:1.0;" x1="249.1045" x2="425.3452" y1="711.4414" y2="711.4414"/><text fill="#000000" font-family="sans-serif" font-size="13" lengthAdjust="spacing" textLength="154.6416" x="256.1045" y="706.1787">submit appointment details</text><polygon fill="#181818" points="601.5859,738.7324,611.5859,742.7324,601.5859,746.7324,605.5859,742.7324" style="stroke:#181818;stroke-width:1.0;"/><line style="stroke:#181818;stroke-width:1.0;" x1="431.3452" x2="607.5859" y1="742.7324" y2="742.7324"/><text fill="#000000" font-family="sans-serif" font-size="13" lengthAdjust="spacing" textLength="120.6816" x="438.3452" y="737.4697">process appointment</text><polygon fill="#181818" points="840.2192,770.0234,850.2192,774.0234,840.2192,778.0234,844.2192,774.0234" style="stroke:#181818;stroke-width:1.0;"/><line style="stroke:#181818;stroke-width:1.0;" x1="613.5859" x2="846.2192" y1="774.0234" y2="774.0234"/><text fill="#000000" font-family="sans-serif" font-size="13" lengthAdjust="spacing" textLength="214.6333" x="620.5859" y="768.7607">handle create appointment command</text><polygon fill="#181818" points="1218.125,801.3145,1228.125,805.3145,1218.125,809.3145,1222.125,805.3145" style="stroke:#181818;stroke-width:1.0;"/><line style="stroke:#181818;stroke-width:1.0;" x1="852.2192" x2="1224.125" y1="805.3145" y2="805.3145"/><text fill="#000000" font-family="sans-serif" font-size="13" lengthAdjust="spacing" textLength="185.0151" x="859.2192" y="800.0518">validate and create appointment</text><polygon fill="#181818" points="863.2192,832.6055,853.2192,836.6055,863.2192,840.6055,859.2192,836.6055" style="stroke:#181818;stroke-width:1.0;"/><line style="stroke:#181818;stroke-width:1.0;" x1="857.2192" x2="1229.125" y1="836.6055" y2="836.6055"/><text fill="#000000" font-family="sans-serif" font-size="13" lengthAdjust="spacing" textLength="162.5952" x="869.2192" y="831.3428">returns created appointment</text><polygon fill="#181818" points="624.5859,863.8965,614.5859,867.8965,624.5859,871.8965,620.5859,867.8965" style="stroke:#181818;stroke-width:1.0;"/><line style="stroke:#181818;stroke-width:1.0;" x1="618.5859" x2="1229.125" y1="867.8965" y2="867.8965"/><text fill="#000000" font-family="sans-serif" font-size="13" lengthAdjust="spacing" textLength="241.3506" x="630.5859" y="862.6338">raise domain event (AppointmentCreated)</text><polygon fill="#181818" points="1341.728,895.1875,1351.728,899.1875,1341.728,903.1875,1345.728,899.1875" style="stroke:#181818;stroke-width:1.0;"/><line style="stroke:#181818;stroke-width:1.0;" x1="852.2192" x2="1347.728" y1="899.1875" y2="899.1875"/><text fill="#000000" font-family="sans-serif" font-size="13" lengthAdjust="spacing" textLength="102.6226" x="859.2192" y="893.9248">save appointment</text><polygon fill="#181818" points="1464.5449,926.4785,1474.5449,930.4785,1464.5449,934.4785,1468.5449,930.4785" style="stroke:#181818;stroke-width:1.0;"/><line style="stroke:#181818;stroke-width:1.0;" x1="613.5859" x2="1470.5449" y1="930.4785" y2="930.4785"/><text fill="#000000" font-family="sans-serif" font-size="13" lengthAdjust="spacing" textLength="137.2871" x="620.5859" y="925.2158">send confirmation email</text><polygon fill="#181818" points="624.5859,957.7695,614.5859,961.7695,624.5859,965.7695,620.5859,961.7695" style="stroke:#181818;stroke-width:1.0;"/><line style="stroke:#181818;stroke-width:1.0;stroke-dasharray:2.0,2.0;" x1="618.5859" x2="1475.5449" y1="961.7695" y2="961.7695"/><text fill="#000000" font-family="sans-serif" font-size="13" lengthAdjust="spacing" textLength="98.9917" x="630.5859" y="956.5068">confirmation sent</text><polygon fill="#181818" points="624.5859,989.0605,614.5859,993.0605,624.5859,997.0605,620.5859,993.0605" style="stroke:#181818;stroke-width:1.0;"/><line style="stroke:#181818;stroke-width:1.0;stroke-dasharray:2.0,2.0;" x1="618.5859" x2="851.2192" y1="993.0605" y2="993.0605"/><text fill="#000000" font-family="sans-serif" font-size="13" lengthAdjust="spacing" textLength="84.5317" x="630.5859" y="987.7979">return success</text><polygon fill="#181818" points="442.3452,1020.3516,432.3452,1024.3516,442.3452,1028.3516,438.3452,1024.3516" style="stroke:#181818;stroke-width:1.0;"/><line style="stroke:#181818;stroke-width:1.0;stroke-dasharray:2.0,2.0;" x1="436.3452" x2="612.5859" y1="1024.3516" y2="1024.3516"/><text fill="#000000" font-family="sans-serif" font-size="13" lengthAdjust="spacing" textLength="108.3799" x="448.3452" y="1019.0889">return confirmation</text><polygon fill="#181818" points="260.1045,1051.6426,250.1045,1055.6426,260.1045,1059.6426,256.1045,1055.6426" style="stroke:#181818;stroke-width:1.0;"/><line style="stroke:#181818;stroke-width:1.0;stroke-dasharray:2.0,2.0;" x1="254.1045" x2="430.3452" y1="1055.6426" y2="1055.6426"/><text fill="#000000" font-family="sans-serif" font-size="13" lengthAdjust="spacing" textLength="104.7681" x="266.1045" y="1050.3799">show confirmation</text><!--SRC=[XPJ1Rjim343l_WgYbxK7O_SS1ZJjXWNOeSDMxAp8T2BKbbHAzj2_7oNPiUoewoKEh4UAV98ff3S4pmwfieAyaieAxU7c6ndjKJVmVBW1uVYnNdyYTAYzyCfe-27UaE3s3nxX_kbm5mFupphYtjfEoImWOTQkiGVJzuBt_Su_NSYQnQNC4x4E-paWlIr11zsIS9u6wGV251UHTTIZwONAoqalDgqYEULOXiIStA-fhnpOmI-aKKcCH7nJLP_gkeQzCIzAdy2A4mA_g89ngB-mLzY15gCw2OyEl85ZXbQyp12xP8hmTK3dWLtWoP12zzcbxLmLY01Q-n7818D9rmvUuxC49eBHnprpBNfvpZW8HtHX6Qcpf8GiNKCZl9ZJPBN5jNTBoxfTaiJkPbd4jvBTbJ8arxzLZ-0wuxd03cMyS5VAqvAxz10RieGj4c4JjYtB5oCVgZXs27xUPcC_gSfNIygBUKhE5p0oqFBd6gihIx_EjbMV5RMLdNLpyNGsVyl59jcSnoZjUvu580d5_st7y61QyYVzua0QtIhgLwRTSEmLYyuID-YvW8rdIuRFpUNWh7gU8Jiunu6GAiDLJZbDaPaDrjCqsC4eEjN4W53gLMmrWSjEiq4tqSqx-7GGGZc49ht5CLHpctbyI2dkLgM52-74YALsq-W9baEvIMaw28mZAAql5s65X2c-x7HrMGOP99UlIvwdS6lovNy0]--></g></svg>