<svg xmlns="http://www.w3.org/2000/svg" xmlns:xlink="http://www.w3.org/1999/xlink" contentStyleType="text/css" height="1034px" preserveAspectRatio="none" style="width:610px;height:1034px;background:#FFFFFF;" version="1.1" viewBox="0 0 610 1034" width="610px" zoomAndPan="magnify"><defs/><g><rect fill="#FFFFFF" height="75.582" style="stroke:#181818;stroke-width:1.0;" width="10" x="308.2163" y="116.9121"/><rect fill="#FFFFFF" height="75.582" style="stroke:#181818;stroke-width:1.0;" width="10" x="308.2163" y="255.0762"/><rect fill="#FFFFFF" height="75.582" style="stroke:#181818;stroke-width:1.0;" width="10" x="308.2163" y="388.2402"/><rect fill="#FFFFFF" height="37.291" style="stroke:#181818;stroke-width:1.0;" width="10" x="308.2163" y="502.1133"/><rect fill="none" height="126.1641" style="stroke:#000000;stroke-width:1.5;" width="594.4551" x="10" y="345.6582"/><rect fill="none" height="126.1641" style="stroke:#000000;stroke-width:1.5;" width="462.3979" x="10" y="561.4043"/><rect fill="none" height="188.7461" style="stroke:#000000;stroke-width:1.5;" width="462.3979" x="10" y="701.5684"/><line style="stroke:#181818;stroke-width:0.5;stroke-dasharray:5.0,5.0;" x1="37" x2="37" y1="83.6211" y2="951.6055"/><line style="stroke:#181818;stroke-width:0.5;stroke-dasharray:5.0,5.0;" x1="312.8784" x2="312.8784" y1="83.6211" y2="951.6055"/><text fill="#000000" font-family="sans-serif" font-size="14" lengthAdjust="spacing" textLength="29.5586" x="20" y="80.1074">User</text><ellipse cx="37.7793" cy="13.5" fill="#E2E2F0" rx="8" ry="8" style="stroke:#181818;stroke-width:0.5;"/><path d="M37.7793,21.5 L37.7793,48.5 M24.7793,29.5 L50.7793,29.5 M37.7793,48.5 L24.7793,63.5 M37.7793,48.5 L50.7793,63.5 " fill="none" style="stroke:#181818;stroke-width:0.5;"/><text fill="#000000" font-family="sans-serif" font-size="14" lengthAdjust="spacing" textLength="29.5586" x="20" y="965.7129">User</text><ellipse cx="37.7793" cy="977.7266" fill="#E2E2F0" rx="8" ry="8" style="stroke:#181818;stroke-width:0.5;"/><path d="M37.7793,985.7266 L37.7793,1012.7266 M24.7793,993.7266 L50.7793,993.7266 M37.7793,1012.7266 L24.7793,1027.7266 M37.7793,1012.7266 L50.7793,1027.7266 " fill="none" style="stroke:#181818;stroke-width:0.5;"/><rect fill="#E2E2F0" height="32.6211" rx="2.5" ry="2.5" style="stroke:#181818;stroke-width:0.5;" width="60.6758" x="282.8784" y="50"/><text fill="#000000" font-family="sans-serif" font-size="14" lengthAdjust="spacing" textLength="46.6758" x="289.8784" y="72.1074">System</text><rect fill="#E2E2F0" height="32.6211" rx="2.5" ry="2.5" style="stroke:#181818;stroke-width:0.5;" width="60.6758" x="282.8784" y="950.6055"/><text fill="#000000" font-family="sans-serif" font-size="14" lengthAdjust="spacing" textLength="46.6758" x="289.8784" y="972.7129">System</text><rect fill="#FFFFFF" height="75.582" style="stroke:#181818;stroke-width:1.0;" width="10" x="308.2163" y="116.9121"/><rect fill="#FFFFFF" height="75.582" style="stroke:#181818;stroke-width:1.0;" width="10" x="308.2163" y="255.0762"/><rect fill="#FFFFFF" height="75.582" style="stroke:#181818;stroke-width:1.0;" width="10" x="308.2163" y="388.2402"/><rect fill="#FFFFFF" height="37.291" style="stroke:#181818;stroke-width:1.0;" width="10" x="308.2163" y="502.1133"/><polygon fill="#181818" points="296.2163,112.9121,306.2163,116.9121,296.2163,120.9121,300.2163,116.9121" style="stroke:#181818;stroke-width:1.0;"/><line style="stroke:#181818;stroke-width:1.0;" x1="37.7793" x2="302.2163" y1="116.9121" y2="116.9121"/><text fill="#000000" font-family="sans-serif" font-size="13" lengthAdjust="spacing" textLength="218.2578" x="44.7793" y="111.6494">navigates to book appointment page()</text><line style="stroke:#181818;stroke-width:1.0;" x1="318.2163" x2="360.2163" y1="148.2031" y2="148.2031"/><line style="stroke:#181818;stroke-width:1.0;" x1="360.2163" x2="360.2163" y1="148.2031" y2="161.2031"/><line style="stroke:#181818;stroke-width:1.0;" x1="319.2163" x2="360.2163" y1="161.2031" y2="161.2031"/><polygon fill="#181818" points="329.2163,157.2031,319.2163,161.2031,329.2163,165.2031,325.2163,161.2031" style="stroke:#181818;stroke-width:1.0;"/><text fill="#000000" font-family="sans-serif" font-size="13" lengthAdjust="spacing" textLength="224.707" x="325.2163" y="142.9404">fetches list of categories and services()</text><polygon fill="#181818" points="48.7793,188.4941,38.7793,192.4941,48.7793,196.4941,44.7793,192.4941" style="stroke:#181818;stroke-width:1.0;"/><line style="stroke:#181818;stroke-width:1.0;stroke-dasharray:2.0,2.0;" x1="42.7793" x2="312.2163" y1="192.4941" y2="192.4941"/><text fill="#000000" font-family="sans-serif" font-size="13" lengthAdjust="spacing" textLength="185.688" x="54.7793" y="187.2314">shows categories and services()</text><polygon fill="#181818" points="301.2163,219.7852,311.2163,223.7852,301.2163,227.7852,305.2163,223.7852" style="stroke:#181818;stroke-width:1.0;"/><line style="stroke:#181818;stroke-width:1.0;" x1="37.7793" x2="307.2163" y1="223.7852" y2="223.7852"/><text fill="#000000" font-family="sans-serif" font-size="13" lengthAdjust="spacing" textLength="223.2534" x="44.7793" y="218.5225">user selects services for appointment()</text><polygon fill="#181818" points="296.2163,251.0762,306.2163,255.0762,296.2163,259.0762,300.2163,255.0762" style="stroke:#181818;stroke-width:1.0;"/><line style="stroke:#181818;stroke-width:1.0;" x1="37.7793" x2="302.2163" y1="255.0762" y2="255.0762"/><text fill="#000000" font-family="sans-serif" font-size="13" lengthAdjust="spacing" textLength="171.9771" x="44.7793" y="249.8135">selects date for appointment()</text><line style="stroke:#181818;stroke-width:1.0;" x1="318.2163" x2="360.2163" y1="286.3672" y2="286.3672"/><line style="stroke:#181818;stroke-width:1.0;" x1="360.2163" x2="360.2163" y1="286.3672" y2="299.3672"/><line style="stroke:#181818;stroke-width:1.0;" x1="319.2163" x2="360.2163" y1="299.3672" y2="299.3672"/><polygon fill="#181818" points="329.2163,295.3672,319.2163,299.3672,329.2163,303.3672,325.2163,299.3672" style="stroke:#181818;stroke-width:1.0;"/><text fill="#000000" font-family="sans-serif" font-size="13" lengthAdjust="spacing" textLength="257.2388" x="325.2163" y="281.1045">fetches available time slot for selected date()</text><polygon fill="#181818" points="48.7793,326.6582,38.7793,330.6582,48.7793,334.6582,44.7793,330.6582" style="stroke:#181818;stroke-width:1.0;"/><line style="stroke:#181818;stroke-width:1.0;stroke-dasharray:2.0,2.0;" x1="42.7793" x2="312.2163" y1="330.6582" y2="330.6582"/><text fill="#000000" font-family="sans-serif" font-size="13" lengthAdjust="spacing" textLength="192.8989" x="54.7793" y="325.3955">shows list of available time slots()</text><path d="M10,345.6582 L82.4346,345.6582 L82.4346,354.9492 L72.4346,364.9492 L10,364.9492 L10,345.6582 " fill="#EEEEEE" style="stroke:#000000;stroke-width:1.5;"/><rect fill="none" height="126.1641" style="stroke:#000000;stroke-width:1.5;" width="594.4551" x="10" y="345.6582"/><text fill="#000000" font-family="sans-serif" font-size="13" font-weight="bold" lengthAdjust="spacing" textLength="27.4346" x="25" y="360.6865">loop</text><text fill="#000000" font-family="sans-serif" font-size="11" font-weight="bold" lengthAdjust="spacing" textLength="346.5967" x="97.4346" y="359.5283">[user selects another date [while no suitable time slot is selected]]</text><polygon fill="#181818" points="296.2163,384.2402,306.2163,388.2402,296.2163,392.2402,300.2163,388.2402" style="stroke:#181818;stroke-width:1.0;"/><line style="stroke:#181818;stroke-width:1.0;" x1="37.7793" x2="302.2163" y1="388.2402" y2="388.2402"/><text fill="#000000" font-family="sans-serif" font-size="13" lengthAdjust="spacing" textLength="199.437" x="44.7793" y="382.9775">selects new date for appointment()</text><line style="stroke:#181818;stroke-width:1.0;" x1="318.2163" x2="360.2163" y1="419.5313" y2="419.5313"/><line style="stroke:#181818;stroke-width:1.0;" x1="360.2163" x2="360.2163" y1="419.5313" y2="432.5313"/><line style="stroke:#181818;stroke-width:1.0;" x1="319.2163" x2="360.2163" y1="432.5313" y2="432.5313"/><polygon fill="#181818" points="329.2163,428.5313,319.2163,432.5313,329.2163,436.5313,325.2163,432.5313" style="stroke:#181818;stroke-width:1.0;"/><text fill="#000000" font-family="sans-serif" font-size="13" lengthAdjust="spacing" textLength="257.2388" x="325.2163" y="414.2686">fetches available time slot for selected date()</text><polygon fill="#181818" points="48.7793,459.8223,38.7793,463.8223,48.7793,467.8223,44.7793,463.8223" style="stroke:#181818;stroke-width:1.0;"/><line style="stroke:#181818;stroke-width:1.0;stroke-dasharray:2.0,2.0;" x1="42.7793" x2="312.2163" y1="463.8223" y2="463.8223"/><text fill="#000000" font-family="sans-serif" font-size="13" lengthAdjust="spacing" textLength="192.8989" x="54.7793" y="458.5596">shows list of available time slots()</text><polygon fill="#181818" points="296.2163,498.1133,306.2163,502.1133,296.2163,506.1133,300.2163,502.1133" style="stroke:#181818;stroke-width:1.0;"/><line style="stroke:#181818;stroke-width:1.0;" x1="37.7793" x2="302.2163" y1="502.1133" y2="502.1133"/><text fill="#000000" font-family="sans-serif" font-size="13" lengthAdjust="spacing" textLength="251.437" x="44.7793" y="496.8506">selects preferred time slot for appointment()</text><line style="stroke:#181818;stroke-width:1.0;" x1="318.2163" x2="360.2163" y1="538.4043" y2="538.4043"/><line style="stroke:#181818;stroke-width:1.0;" x1="360.2163" x2="360.2163" y1="538.4043" y2="551.4043"/><line style="stroke:#181818;stroke-width:1.0;" x1="313.2163" x2="360.2163" y1="551.4043" y2="551.4043"/><polygon fill="#181818" points="323.2163,547.4043,313.2163,551.4043,323.2163,555.4043,319.2163,551.4043" style="stroke:#181818;stroke-width:1.0;"/><text fill="#000000" font-family="sans-serif" font-size="13" lengthAdjust="spacing" textLength="157.5107" x="325.2163" y="533.1416">checks if user is logged in()</text><path d="M10,561.4043 L70.1709,561.4043 L70.1709,570.6953 L60.1709,580.6953 L10,580.6953 L10,561.4043 " fill="#EEEEEE" style="stroke:#000000;stroke-width:1.5;"/><rect fill="none" height="126.1641" style="stroke:#000000;stroke-width:1.5;" width="462.3979" x="10" y="561.4043"/><text fill="#000000" font-family="sans-serif" font-size="13" font-weight="bold" lengthAdjust="spacing" textLength="15.1709" x="25" y="576.4326">alt</text><text fill="#000000" font-family="sans-serif" font-size="11" font-weight="bold" lengthAdjust="spacing" textLength="94.73" x="85.1709" y="575.2744">[user is logged in]</text><polygon fill="#181818" points="48.7793,599.9863,38.7793,603.9863,48.7793,607.9863,44.7793,603.9863" style="stroke:#181818;stroke-width:1.0;"/><line style="stroke:#181818;stroke-width:1.0;stroke-dasharray:2.0,2.0;" x1="42.7793" x2="312.2163" y1="603.9863" y2="603.9863"/><text fill="#000000" font-family="sans-serif" font-size="13" lengthAdjust="spacing" textLength="142.3271" x="54.7793" y="598.7236">shows user information()</text><polygon fill="#181818" points="301.2163,631.2773,311.2163,635.2773,301.2163,639.2773,305.2163,635.2773" style="stroke:#181818;stroke-width:1.0;"/><line style="stroke:#181818;stroke-width:1.0;" x1="37.7793" x2="307.2163" y1="635.2773" y2="635.2773"/><text fill="#000000" font-family="sans-serif" font-size="13" lengthAdjust="spacing" textLength="154.5972" x="44.7793" y="630.0146">user confirms information()</text><line style="stroke:#181818;stroke-width:1.0;" x1="313.2163" x2="355.2163" y1="666.5684" y2="666.5684"/><line style="stroke:#181818;stroke-width:1.0;" x1="355.2163" x2="355.2163" y1="666.5684" y2="679.5684"/><line style="stroke:#181818;stroke-width:1.0;" x1="314.2163" x2="355.2163" y1="679.5684" y2="679.5684"/><polygon fill="#181818" points="324.2163,675.5684,314.2163,679.5684,324.2163,683.5684,320.2163,679.5684" style="stroke:#181818;stroke-width:1.0;"/><text fill="#000000" font-family="sans-serif" font-size="13" lengthAdjust="spacing" textLength="140.1816" x="320.2163" y="661.3057">appointment is created()</text><path d="M10,701.5684 L70.1709,701.5684 L70.1709,710.8594 L60.1709,720.8594 L10,720.8594 L10,701.5684 " fill="#EEEEEE" style="stroke:#000000;stroke-width:1.5;"/><rect fill="none" height="188.7461" style="stroke:#000000;stroke-width:1.5;" width="462.3979" x="10" y="701.5684"/><text fill="#000000" font-family="sans-serif" font-size="13" font-weight="bold" lengthAdjust="spacing" textLength="15.1709" x="25" y="716.5967">alt</text><text fill="#000000" font-family="sans-serif" font-size="11" font-weight="bold" lengthAdjust="spacing" textLength="114.8877" x="85.1709" y="715.4385">[user is not logged in]</text><polygon fill="#181818" points="48.7793,740.1504,38.7793,744.1504,48.7793,748.1504,44.7793,744.1504" style="stroke:#181818;stroke-width:1.0;"/><line style="stroke:#181818;stroke-width:1.0;stroke-dasharray:2.0,2.0;" x1="42.7793" x2="312.2163" y1="744.1504" y2="744.1504"/><text fill="#000000" font-family="sans-serif" font-size="13" lengthAdjust="spacing" textLength="130.0508" x="54.7793" y="738.8877">prompts user to login()</text><polygon fill="#181818" points="301.2163,771.4414,311.2163,775.4414,301.2163,779.4414,305.2163,775.4414" style="stroke:#181818;stroke-width:1.0;"/><line style="stroke:#181818;stroke-width:1.0;" x1="37.7793" x2="307.2163" y1="775.4414" y2="775.4414"/><text fill="#000000" font-family="sans-serif" font-size="13" lengthAdjust="spacing" textLength="75.1372" x="44.7793" y="770.1787">user logs in()</text><polygon fill="#181818" points="48.7793,802.7324,38.7793,806.7324,48.7793,810.7324,44.7793,806.7324" style="stroke:#181818;stroke-width:1.0;"/><line style="stroke:#181818;stroke-width:1.0;stroke-dasharray:2.0,2.0;" x1="42.7793" x2="312.2163" y1="806.7324" y2="806.7324"/><text fill="#000000" font-family="sans-serif" font-size="13" lengthAdjust="spacing" textLength="142.3271" x="54.7793" y="801.4697">shows user information()</text><polygon fill="#181818" points="301.2163,834.0234,311.2163,838.0234,301.2163,842.0234,305.2163,838.0234" style="stroke:#181818;stroke-width:1.0;"/><line style="stroke:#181818;stroke-width:1.0;" x1="37.7793" x2="307.2163" y1="838.0234" y2="838.0234"/><text fill="#000000" font-family="sans-serif" font-size="13" lengthAdjust="spacing" textLength="154.5972" x="44.7793" y="832.7607">confirms user information()</text><line style="stroke:#181818;stroke-width:1.0;" x1="313.2163" x2="355.2163" y1="869.3145" y2="869.3145"/><line style="stroke:#181818;stroke-width:1.0;" x1="355.2163" x2="355.2163" y1="869.3145" y2="882.3145"/><line style="stroke:#181818;stroke-width:1.0;" x1="314.2163" x2="355.2163" y1="882.3145" y2="882.3145"/><polygon fill="#181818" points="324.2163,878.3145,314.2163,882.3145,324.2163,886.3145,320.2163,882.3145" style="stroke:#181818;stroke-width:1.0;"/><text fill="#000000" font-family="sans-serif" font-size="13" lengthAdjust="spacing" textLength="140.1816" x="320.2163" y="864.0518">appointment is created()</text><line style="stroke:#181818;stroke-width:1.0;" x1="313.2163" x2="355.2163" y1="925.6055" y2="925.6055"/><line style="stroke:#181818;stroke-width:1.0;" x1="355.2163" x2="355.2163" y1="925.6055" y2="938.6055"/><line style="stroke:#181818;stroke-width:1.0;" x1="308.2163" x2="355.2163" y1="938.6055" y2="938.6055"/><polygon fill="#181818" points="318.2163,934.6055,308.2163,938.6055,318.2163,942.6055,314.2163,938.6055" style="stroke:#181818;stroke-width:1.0;"/><text fill="#000000" font-family="sans-serif" font-size="13" lengthAdjust="spacing" textLength="152.4453" x="320.2163" y="920.3428">sends confirmation email()</text><!--SRC=[hLJBSeCm3Bpp5JgsX_v03ls9Ja-T7XmZG1DZUIoLJF- -2Waf2O-KcHunkwlTbS5vvGplWhb8BYjvIYugl7sBObiKfnVmydfvXXr4rr7j50MKOSzy09SIKzGMZPPSZK_FXVDAdO46cGjxh5EX-iPK0ea2L-0DNdCcEtAn11lRaKSniO5ixDxD3gJXewmmIhmtCCtnTJeG3EXLhboeh8jH7jEQ40TEUPAVuZT4TvsZuFO1GQb5aC3Q2vudODcFM2bWg6v6Pw65m9nkaxl8sjXpd-RZs92fH0Rv8hrpHd8rzba0BFOIyRZK3S2z8u1_wETNP6D30DEEC9R5yj9JnWfpjjctbZRV0Gle3m9KdTTXvGQkQzEbEByw5tGANOb-naOprpebZdtS-Q_0SwmejpA1p_WUV-pcn6SqawMX-zx69krYFJ2QChT9BrRjRs9eMlDfxmKehcxyRx6lYMVXssC_thSOK8Qv_IZ0rYxbxB9_0000]--></g></svg>