<svg xmlns="http://www.w3.org/2000/svg" xmlns:xlink="http://www.w3.org/1999/xlink" contentStyleType="text/css" height="356px" preserveAspectRatio="none" style="width:852px;height:356px;background:#FFFFFF;" version="1.1" viewBox="0 0 852 356" width="852px" zoomAndPan="magnify"><defs/><g><line style="stroke:#181818;stroke-width:0.5;stroke-dasharray:5.0,5.0;" x1="25" x2="25" y1="83.6211" y2="273.0762"/><line style="stroke:#181818;stroke-width:0.5;stroke-dasharray:5.0,5.0;" x1="160.7397" x2="160.7397" y1="83.6211" y2="273.0762"/><line style="stroke:#181818;stroke-width:0.5;stroke-dasharray:5.0,5.0;" x1="374.4023" x2="374.4023" y1="83.6211" y2="273.0762"/><line style="stroke:#181818;stroke-width:0.5;stroke-dasharray:5.0,5.0;" x1="586.6152" x2="586.6152" y1="83.6211" y2="273.0762"/><line style="stroke:#181818;stroke-width:0.5;stroke-dasharray:5.0,5.0;" x1="798.2622" x2="798.2622" y1="83.6211" y2="273.0762"/><text fill="#000000" font-family="sans-serif" font-size="14" lengthAdjust="spacing" textLength="35.793" x="5" y="80.1074">Client</text><ellipse cx="25.8965" cy="13.5" fill="#E2E2F0" rx="8" ry="8" style="stroke:#181818;stroke-width:0.5;"/><path d="M25.8965,21.5 L25.8965,48.5 M12.8965,29.5 L38.8965,29.5 M25.8965,48.5 L12.8965,63.5 M25.8965,48.5 L38.8965,63.5 " fill="none" style="stroke:#181818;stroke-width:0.5;"/><text fill="#000000" font-family="sans-serif" font-size="14" lengthAdjust="spacing" textLength="35.793" x="5" y="287.1836">Client</text><ellipse cx="25.8965" cy="299.1973" fill="#E2E2F0" rx="8" ry="8" style="stroke:#181818;stroke-width:0.5;"/><path d="M25.8965,307.1973 L25.8965,334.1973 M12.8965,315.1973 L38.8965,315.1973 M25.8965,334.1973 L12.8965,349.1973 M25.8965,334.1973 L38.8965,349.1973 " fill="none" style="stroke:#181818;stroke-width:0.5;"/><rect fill="#E2E2F0" height="32.6211" rx="2.5" ry="2.5" style="stroke:#181818;stroke-width:0.5;" width="140.875" x="90.7397" y="50"/><text fill="#000000" font-family="sans-serif" font-size="14" lengthAdjust="spacing" textLength="126.875" x="97.7397" y="72.1074">Schedule Aggregate</text><rect fill="#E2E2F0" height="32.6211" rx="2.5" ry="2.5" style="stroke:#181818;stroke-width:0.5;" width="140.875" x="90.7397" y="272.0762"/><text fill="#000000" font-family="sans-serif" font-size="14" lengthAdjust="spacing" textLength="126.875" x="97.7397" y="294.1836">Schedule Aggregate</text><rect fill="#E2E2F0" height="32.6211" rx="2.5" ry="2.5" style="stroke:#181818;stroke-width:0.5;" width="178.2129" x="285.4023" y="50"/><text fill="#000000" font-family="sans-serif" font-size="14" lengthAdjust="spacing" textLength="164.2129" x="292.4023" y="72.1074">AppointmentCreatedEvent</text><rect fill="#E2E2F0" height="32.6211" rx="2.5" ry="2.5" style="stroke:#181818;stroke-width:0.5;" width="178.2129" x="285.4023" y="272.0762"/><text fill="#000000" font-family="sans-serif" font-size="14" lengthAdjust="spacing" textLength="164.2129" x="292.4023" y="294.1836">AppointmentCreatedEvent</text><rect fill="#E2E2F0" height="32.6211" rx="2.5" ry="2.5" style="stroke:#181818;stroke-width:0.5;" width="227.2402" x="473.6152" y="50"/><text fill="#000000" font-family="sans-serif" font-size="14" lengthAdjust="spacing" textLength="213.2402" x="480.6152" y="72.1074">AppointmentCreatedEventHandler</text><rect fill="#E2E2F0" height="32.6211" rx="2.5" ry="2.5" style="stroke:#181818;stroke-width:0.5;" width="227.2402" x="473.6152" y="272.0762"/><text fill="#000000" font-family="sans-serif" font-size="14" lengthAdjust="spacing" textLength="213.2402" x="480.6152" y="294.1836">AppointmentCreatedEventHandler</text><rect fill="#E2E2F0" height="32.6211" rx="2.5" ry="2.5" style="stroke:#181818;stroke-width:0.5;" width="95.6895" x="751.2622" y="50"/><text fill="#000000" font-family="sans-serif" font-size="14" lengthAdjust="spacing" textLength="81.6895" x="758.2622" y="72.1074">EmailService</text><rect fill="#E2E2F0" height="32.6211" rx="2.5" ry="2.5" style="stroke:#181818;stroke-width:0.5;" width="95.6895" x="751.2622" y="272.0762"/><text fill="#000000" font-family="sans-serif" font-size="14" lengthAdjust="spacing" textLength="81.6895" x="758.2622" y="294.1836">EmailService</text><polygon fill="#181818" points="149.1772,112.9121,159.1772,116.9121,149.1772,120.9121,153.1772,116.9121" style="stroke:#181818;stroke-width:1.0;"/><line style="stroke:#181818;stroke-width:1.0;" x1="25.8965" x2="155.1772" y1="116.9121" y2="116.9121"/><text fill="#000000" font-family="sans-serif" font-size="13" lengthAdjust="spacing" textLength="111.2808" x="32.8965" y="111.6494">BookAppointment()</text><line style="stroke:#181818;stroke-width:1.0;" x1="161.1772" x2="203.1772" y1="148.2031" y2="148.2031"/><line style="stroke:#181818;stroke-width:1.0;" x1="203.1772" x2="203.1772" y1="148.2031" y2="161.2031"/><line style="stroke:#181818;stroke-width:1.0;" x1="162.1772" x2="203.1772" y1="161.2031" y2="161.2031"/><polygon fill="#181818" points="172.1772,157.2031,162.1772,161.2031,172.1772,165.2031,168.1772,161.2031" style="stroke:#181818;stroke-width:1.0;"/><text fill="#000000" font-family="sans-serif" font-size="13" lengthAdjust="spacing" textLength="98.2935" x="168.1772" y="142.9404">Add appointment</text><polygon fill="#181818" points="362.5088,188.4941,372.5088,192.4941,362.5088,196.4941,366.5088,192.4941" style="stroke:#181818;stroke-width:1.0;"/><line style="stroke:#181818;stroke-width:1.0;" x1="161.1772" x2="368.5088" y1="192.4941" y2="192.4941"/><text fill="#000000" font-family="sans-serif" font-size="13" lengthAdjust="spacing" textLength="189.3315" x="168.1772" y="187.2314">Raise AppointmentCreatedEvent</text><polygon fill="#181818" points="575.2354,219.7852,585.2354,223.7852,575.2354,227.7852,579.2354,223.7852" style="stroke:#181818;stroke-width:1.0;"/><line style="stroke:#181818;stroke-width:1.0;" x1="374.5088" x2="581.2354" y1="223.7852" y2="223.7852"/><text fill="#000000" font-family="sans-serif" font-size="13" lengthAdjust="spacing" textLength="145.9707" x="381.5088" y="218.5225">Dispatched by dispatcher</text><polygon fill="#181818" points="787.1069,251.0762,797.1069,255.0762,787.1069,259.0762,791.1069,255.0762" style="stroke:#181818;stroke-width:1.0;"/><line style="stroke:#181818;stroke-width:1.0;" x1="587.2354" x2="793.1069" y1="255.0762" y2="255.0762"/><text fill="#000000" font-family="sans-serif" font-size="13" lengthAdjust="spacing" textLength="187.8716" x="594.2354" y="249.8135">Send confirmation email to client</text><!--SRC=[ZP713e8m38RlUuh6anvy0GycY2IUvGdgLh4HjcLK4j_UmG0XyU3jN_VzxTyDjRW0USraHNaCmfezMe5DgHzaNZL1LbM1AXJQ0BOmbTTmvhrZAqtiaWUAh2cwg0V7eFx2BsXDJM5mZNhjAnhakgJGiKvfbWMbqXgmFyufuG0dvvwBUTkTcY_NO6OCu1TSOKEyo5oHs_WYl-EhH4Ly31yDPsuzIjy9Rcymqoce2UcRBvQ8bfAi0UtidKE3miu2zG280vt-wGC0]--></g></svg>