<svg xmlns="http://www.w3.org/2000/svg" xmlns:xlink="http://www.w3.org/1999/xlink" contentStyleType="text/css" height="705px" preserveAspectRatio="none" style="width:346px;height:705px;background:#FFFFFF;" version="1.1" viewBox="0 0 346 705" width="346px" zoomAndPan="magnify"><title>Frontend Data Flow - UI to Backend and Back</title><defs/><g><text fill="#000000" font-family="sans-serif" font-size="14" font-weight="bold" lengthAdjust="spacing" textLength="302.5928" x="15.0972" y="25.1074">Frontend Data Flow - UI to Backend and Back</text><!--entity User--><g id="elem_User"><ellipse cx="123.2393" cy="53.6211" fill="#F1F1F1" rx="8" ry="8" style="stroke:#181818;stroke-width:0.5;"/><path d="M123.2393,61.6211 L123.2393,88.6211 M110.2393,69.6211 L136.2393,69.6211 M123.2393,88.6211 L110.2393,103.6211 M123.2393,88.6211 L136.2393,103.6211 " fill="none" style="stroke:#181818;stroke-width:0.5;"/><text fill="#000000" font-family="sans-serif" font-size="14" lengthAdjust="spacing" textLength="29.5586" x="108.46" y="120.2285">User</text></g><!--entity UI--><g id="elem_UI"><rect fill="#F1F1F1" height="67.2422" rx="2.5" ry="2.5" style="stroke:#181818;stroke-width:0.5;" width="152.0615" x="47.46" y="203.1211"/><rect fill="#F1F1F1" height="10" style="stroke:#181818;stroke-width:0.5;" width="15" x="179.5215" y="208.1211"/><rect fill="#F1F1F1" height="2" style="stroke:#181818;stroke-width:0.5;" width="4" x="177.5215" y="210.1211"/><rect fill="#F1F1F1" height="2" style="stroke:#181818;stroke-width:0.5;" width="4" x="177.5215" y="214.1211"/><text fill="#000000" font-family="sans-serif" font-size="14" lengthAdjust="spacing" textLength="112.0615" x="62.46" y="238.2285">Client Component</text><text fill="#000000" font-family="sans-serif" font-size="14" lengthAdjust="spacing" textLength="68.4688" x="62.46" y="256.8496">(use client)</text></g><!--entity Store--><g id="elem_Store"><rect fill="#F1F1F1" height="67.2422" rx="2.5" ry="2.5" style="stroke:#181818;stroke-width:0.5;" width="130.624" x="57.96" y="349.1211"/><rect fill="#F1F1F1" height="10" style="stroke:#181818;stroke-width:0.5;" width="15" x="168.584" y="354.1211"/><rect fill="#F1F1F1" height="2" style="stroke:#181818;stroke-width:0.5;" width="4" x="166.584" y="356.1211"/><rect fill="#F1F1F1" height="2" style="stroke:#181818;stroke-width:0.5;" width="4" x="166.584" y="360.1211"/><text fill="#000000" font-family="sans-serif" font-size="14" lengthAdjust="spacing" textLength="77.8203" x="72.96" y="384.2285">Redux Store</text><text fill="#000000" font-family="sans-serif" font-size="14" lengthAdjust="spacing" textLength="90.624" x="72.96" y="402.8496">(RTK + Slices)</text></g><!--entity RTK--><g id="elem_RTK"><rect fill="#F1F1F1" height="67.2422" rx="2.5" ry="2.5" style="stroke:#181818;stroke-width:0.5;" width="162.1582" x="42.46" y="495.1211"/><rect fill="#F1F1F1" height="10" style="stroke:#181818;stroke-width:0.5;" width="15" x="184.6182" y="500.1211"/><rect fill="#F1F1F1" height="2" style="stroke:#181818;stroke-width:0.5;" width="4" x="182.6182" y="502.1211"/><rect fill="#F1F1F1" height="2" style="stroke:#181818;stroke-width:0.5;" width="4" x="182.6182" y="506.1211"/><text fill="#000000" font-family="sans-serif" font-size="14" lengthAdjust="spacing" textLength="70.0137" x="57.46" y="530.2285">RTK Query</text><text fill="#000000" font-family="sans-serif" font-size="14" lengthAdjust="spacing" textLength="122.1582" x="57.46" y="548.8496">(Base Query Layer)</text></g><!--entity Server--><g id="elem_Server"><rect fill="#F1F1F1" height="67.2422" rx="2.5" ry="2.5" style="stroke:#181818;stroke-width:0.5;" width="166.8271" x="173.96" y="51.1211"/><rect fill="#F1F1F1" height="10" style="stroke:#181818;stroke-width:0.5;" width="15" x="320.7871" y="56.1211"/><rect fill="#F1F1F1" height="2" style="stroke:#181818;stroke-width:0.5;" width="4" x="318.7871" y="58.1211"/><rect fill="#F1F1F1" height="2" style="stroke:#181818;stroke-width:0.5;" width="4" x="318.7871" y="62.1211"/><text fill="#000000" font-family="sans-serif" font-size="14" lengthAdjust="spacing" textLength="87.9102" x="188.96" y="86.2285">Next.js Server</text><text fill="#000000" font-family="sans-serif" font-size="14" lengthAdjust="spacing" textLength="126.8271" x="188.96" y="104.8496">(Server Component)</text></g><!--entity Backend--><g id="elem_Backend"><path d="M72.96,651.1211 C72.96,641.1211 123.4288,641.1211 123.4288,641.1211 C123.4288,641.1211 173.8975,641.1211 173.8975,651.1211 L173.8975,678.7422 C173.8975,688.7422 123.4288,688.7422 123.4288,688.7422 C123.4288,688.7422 72.96,688.7422 72.96,678.7422 L72.96,651.1211 " fill="#F1F1F1" style="stroke:#181818;stroke-width:0.5;"/><path d="M72.96,651.1211 C72.96,661.1211 123.4288,661.1211 123.4288,661.1211 C123.4288,661.1211 173.8975,661.1211 173.8975,651.1211 " fill="none" style="stroke:#181818;stroke-width:0.5;"/><text fill="#000000" font-family="sans-serif" font-size="14" lengthAdjust="spacing" textLength="80.9375" x="82.96" y="680.2285">Backend API</text></g><!--link User to UI--><g id="link_User_UI"><path d="M108.15,91.3611 C77.58,103.7711 13.56,135.0811 33.46,173.1211 C39.54,184.7511 44.1916,190.9195 54.5916,199.1795 " fill="none" id="User-to-UI" style="stroke:#181818;stroke-width:1.0;"/><polygon fill="#181818" points="59.29,202.9111,54.7301,194.1814,55.3747,199.8014,49.7546,200.4459,59.29,202.9111" style="stroke:#181818;stroke-width:1.0;"/><text fill="#000000" font-family="sans-serif" font-size="13" lengthAdjust="spacing" textLength="132.1963" x="34.46" y="169.1494">Interacts (clicks, types)</text></g><!--link UI to User--><g id="link_UI_User"><path d="M158.09,202.7511 C168.94,188.5011 176.84,171.1911 171.46,154.1211 C165.04,133.7611 154.1406,118.6905 142.6406,105.7205 " fill="none" id="UI-to-User" style="stroke:#181818;stroke-width:1.0;"/><polygon fill="#181818" points="138.66,101.2311,141.6379,110.6189,141.9772,104.9723,147.6238,105.3115,138.66,101.2311" style="stroke:#181818;stroke-width:1.0;"/><text fill="#000000" font-family="sans-serif" font-size="13" lengthAdjust="spacing" textLength="109.8525" x="173.46" y="169.1494">Render updated UI</text></g><!--link UI to Store--><g id="link_UI_Store"><path d="M49.12,270.2211 C38.03,278.3611 28.11,288.2511 21.46,300.1211 C7.95,324.2511 25.1375,341.1602 52.4275,355.1102 " fill="none" id="UI-to-Store" style="stroke:#181818;stroke-width:1.0;"/><polygon fill="#181818" points="57.77,357.8411,51.5769,350.183,53.3179,355.5653,47.9357,357.3063,57.77,357.8411" style="stroke:#181818;stroke-width:1.0;"/><text fill="#000000" font-family="sans-serif" font-size="13" lengthAdjust="spacing" textLength="157.5234" x="22.46" y="315.1494">Dispatch action or mutation</text></g><!--link Store to UI--><g id="link_Store_UI"><path d="M168.64,348.7311 C182.1,334.7511 191.59,317.6311 184.46,300.1211 C180,289.1711 176.6944,283.4769 168.5444,274.7469 " fill="none" id="Store-to-UI" style="stroke:#181818;stroke-width:1.0;"/><polygon fill="#181818" points="164.45,270.3611,167.6678,279.6695,167.862,274.016,173.5156,274.2102,164.45,270.3611" style="stroke:#181818;stroke-width:1.0;"/><text fill="#000000" font-family="sans-serif" font-size="13" lengthAdjust="spacing" textLength="125.0234" x="187.46" y="315.1494">Provide data via hook</text></g><!--link Store to RTK--><g id="link_Store_RTK"><path d="M69.96,416.3811 C60.45,424.8111 51.86,434.7711 46.46,446.1211 C37.75,464.4011 44.2323,477.4161 60.4523,491.0161 " fill="none" id="Store-to-RTK" style="stroke:#181818;stroke-width:1.0;"/><polygon fill="#181818" points="65.05,494.8711,60.7235,486.0234,61.2186,491.6586,55.5834,492.1537,65.05,494.8711" style="stroke:#181818;stroke-width:1.0;"/><text fill="#000000" font-family="sans-serif" font-size="13" lengthAdjust="spacing" textLength="106.9517" x="47.46" y="461.1494">Calls API endpoint</text></g><!--link RTK to Store--><g id="link_RTK_Store"><path d="M148.36,495.1111 C156.66,480.4911 162.81,462.8111 158.46,446.1211 C155.79,435.8911 153.9697,430.8072 148.7997,421.5672 " fill="none" id="RTK-to-Store" style="stroke:#181818;stroke-width:1.0;"/><polygon fill="#181818" points="145.87,416.3311,146.7739,426.1384,148.3114,420.6945,153.7553,422.2321,145.87,416.3311" style="stroke:#181818;stroke-width:1.0;"/><text fill="#000000" font-family="sans-serif" font-size="13" lengthAdjust="spacing" textLength="80.2217" x="160.46" y="461.1494">Update cache</text></g><!--link RTK to Backend--><g id="link_RTK_Backend"><path d="M42.43,560.4711 C20.57,573.7311 6,590.8811 18.46,611.1211 C30.5,630.6811 46.6458,641.1219 67.2258,649.1019 " fill="none" id="RTK-to-Backend" style="stroke:#181818;stroke-width:1.0;"/><polygon fill="#181818" points="72.82,651.2711,65.8749,644.2879,68.1582,649.4635,62.9826,651.7468,72.82,651.2711" style="stroke:#181818;stroke-width:1.0;"/><text fill="#000000" font-family="sans-serif" font-size="13" lengthAdjust="spacing" textLength="163.9727" x="19.46" y="607.1494">HTTP Request (GET/POST)</text></g><!--link Backend to RTK--><g id="link_Backend_RTK"><path d="M164.22,641.0511 C181.22,628.1611 195.38,610.9211 187.46,592.1211 C182.82,581.1011 179.3626,575.3529 170.9426,566.6929 " fill="none" id="Backend-to-RTK" style="stroke:#181818;stroke-width:1.0;"/><polygon fill="#181818" points="166.76,562.3911,170.166,571.6322,170.2455,565.976,175.9018,566.0554,166.76,562.3911" style="stroke:#181818;stroke-width:1.0;"/><text fill="#000000" font-family="sans-serif" font-size="13" lengthAdjust="spacing" textLength="96.8208" x="190.46" y="607.1494">JSON Response</text></g><!--SRC=[LP51Ky8m48Nl-HLlEC4eUk_16K5Hr85AoyrBJ7U6I4bgaYByUpSf5Jnqkib- -tRV9kXG4sREca2cmeCC4hFQ_c2CzHp1OYBLDcOaVp4MGgfW7TQUd51srrX39c0mhNNyJ_kR3pDiFK6bwz40qhFWPS6AglQ0WhM8sLNvYYiKjLRaEpfb_XKmyjwIEp8-aQoT3dYJHt9T2HEN1GiwX9ilLYAt9yTLNN2UyTGetOgAhNz6sK5l-JwV9-1q5Y9wndXy5rUJOSuhSxmCZo6xL5j_ZN1iU7p1wKWb1mm-QD_8e3PWM5i3tjwk3JB6ecCY7UrbcCgwzh4pk6DZjGaY9YBGZvNXkInphEYx9HymV7eiR_DbKOv4JvpbNehbWadFVZtzAVM3hHispMyarOOk9adkScVtkYB4jM2l9JRMRdjdQH4P2vkAWpR9LF5zVm40]--></g></svg>