<svg xmlns="http://www.w3.org/2000/svg" xmlns:xlink="http://www.w3.org/1999/xlink" contentStyleType="text/css" height="788px" preserveAspectRatio="none" style="width:616px;height:788px;background:#FFFFFF;" version="1.1" viewBox="0 0 616 788" width="616px" zoomAndPan="magnify"><title>.NET Solution Project Dependencies</title><defs/><g><text fill="#000000" font-family="sans-serif" font-size="14" font-weight="bold" lengthAdjust="spacing" textLength="241.9307" x="180.2997" y="25.1074">.NET Solution Project Dependencies</text><!--cluster Core--><g id="cluster_Core"><rect fill="none" height="429" rx="2.5" ry="2.5" style="stroke:#181818;stroke-width:1.0;" width="207" x="290.53" y="353.6211"/><text fill="#000000" font-family="sans-serif" font-size="14" font-weight="bold" lengthAdjust="spacing" textLength="31.8965" x="378.0818" y="370.7285">Core</text></g><!--cluster Infrastructure--><g id="cluster_Infrastructure"><rect fill="none" height="211" rx="2.5" ry="2.5" style="stroke:#181818;stroke-width:1.0;" width="361" x="69.53" y="118.6211"/><text fill="#000000" font-family="sans-serif" font-size="14" font-weight="bold" lengthAdjust="spacing" textLength="91.0205" x="204.5197" y="135.7285">Infrastructure</text></g><!--entity OperationResult--><g id="elem_OperationResult"><rect fill="#F1F1F1" height="48.6211" rx="2.5" ry="2.5" style="stroke:#181818;stroke-width:0.5;" width="141.165" x="340.03" y="717.6211"/><rect fill="#F1F1F1" height="10" style="stroke:#181818;stroke-width:0.5;" width="15" x="461.195" y="722.6211"/><rect fill="#F1F1F1" height="2" style="stroke:#181818;stroke-width:0.5;" width="4" x="459.195" y="724.6211"/><rect fill="#F1F1F1" height="2" style="stroke:#181818;stroke-width:0.5;" width="4" x="459.195" y="728.6211"/><text fill="#000000" font-family="sans-serif" font-size="14" lengthAdjust="spacing" textLength="101.165" x="355.03" y="752.7285">OperationResult</text></g><!--entity Domain--><g id="elem_Domain"><rect fill="#F1F1F1" height="48.6211" rx="2.5" ry="2.5" style="stroke:#181818;stroke-width:0.5;" width="88.2412" x="380.53" y="608.6211"/><rect fill="#F1F1F1" height="10" style="stroke:#181818;stroke-width:0.5;" width="15" x="448.7712" y="613.6211"/><rect fill="#F1F1F1" height="2" style="stroke:#181818;stroke-width:0.5;" width="4" x="446.7712" y="615.6211"/><rect fill="#F1F1F1" height="2" style="stroke:#181818;stroke-width:0.5;" width="4" x="446.7712" y="619.6211"/><text fill="#000000" font-family="sans-serif" font-size="14" lengthAdjust="spacing" textLength="48.2412" x="395.53" y="643.7285">Domain</text></g><!--entity QueryContracts--><g id="elem_QueryContracts"><rect fill="#F1F1F1" height="48.6211" rx="2.5" ry="2.5" style="stroke:#181818;stroke-width:0.5;" width="138.0342" x="306.53" y="499.6211"/><rect fill="#F1F1F1" height="10" style="stroke:#181818;stroke-width:0.5;" width="15" x="424.5642" y="504.6211"/><rect fill="#F1F1F1" height="2" style="stroke:#181818;stroke-width:0.5;" width="4" x="422.5642" y="506.6211"/><rect fill="#F1F1F1" height="2" style="stroke:#181818;stroke-width:0.5;" width="4" x="422.5642" y="510.6211"/><text fill="#000000" font-family="sans-serif" font-size="14" lengthAdjust="spacing" textLength="98.0342" x="321.53" y="534.7285">QueryContracts</text></g><!--entity Application--><g id="elem_Application"><rect fill="#F1F1F1" height="48.6211" rx="2.5" ry="2.5" style="stroke:#181818;stroke-width:0.5;" width="108.4893" x="306.53" y="390.6211"/><rect fill="#F1F1F1" height="10" style="stroke:#181818;stroke-width:0.5;" width="15" x="395.0193" y="395.6211"/><rect fill="#F1F1F1" height="2" style="stroke:#181818;stroke-width:0.5;" width="4" x="393.0193" y="397.6211"/><rect fill="#F1F1F1" height="2" style="stroke:#181818;stroke-width:0.5;" width="4" x="393.0193" y="401.6211"/><text fill="#000000" font-family="sans-serif" font-size="14" lengthAdjust="spacing" textLength="68.4893" x="321.53" y="425.7285">Application</text></g><!--entity DomainModelPersistence--><g id="elem_DomainModelPersistence"><rect fill="#F1F1F1" height="48.6211" rx="2.5" ry="2.5" style="stroke:#181818;stroke-width:0.5;" width="199.5166" x="85.53" y="264.6211"/><rect fill="#F1F1F1" height="10" style="stroke:#181818;stroke-width:0.5;" width="15" x="265.0466" y="269.6211"/><rect fill="#F1F1F1" height="2" style="stroke:#181818;stroke-width:0.5;" width="4" x="263.0466" y="271.6211"/><rect fill="#F1F1F1" height="2" style="stroke:#181818;stroke-width:0.5;" width="4" x="263.0466" y="275.6211"/><text fill="#000000" font-family="sans-serif" font-size="14" lengthAdjust="spacing" textLength="159.5166" x="100.53" y="299.7285">DomainModelPersistence</text></g><!--entity Services--><g id="elem_Services"><rect fill="#F1F1F1" height="48.6211" rx="2.5" ry="2.5" style="stroke:#181818;stroke-width:0.5;" width="93.6826" x="320.53" y="264.6211"/><rect fill="#F1F1F1" height="10" style="stroke:#181818;stroke-width:0.5;" width="15" x="394.2126" y="269.6211"/><rect fill="#F1F1F1" height="2" style="stroke:#181818;stroke-width:0.5;" width="4" x="392.2126" y="271.6211"/><rect fill="#F1F1F1" height="2" style="stroke:#181818;stroke-width:0.5;" width="4" x="392.2126" y="275.6211"/><text fill="#000000" font-family="sans-serif" font-size="14" lengthAdjust="spacing" textLength="53.6826" x="335.53" y="299.7285">Services</text></g><!--entity EfcQueries--><g id="elem_EfcQueries"><rect fill="#F1F1F1" height="48.6211" rx="2.5" ry="2.5" style="stroke:#181818;stroke-width:0.5;" width="109.248" x="305.03" y="155.6211"/><rect fill="#F1F1F1" height="10" style="stroke:#181818;stroke-width:0.5;" width="15" x="394.278" y="160.6211"/><rect fill="#F1F1F1" height="2" style="stroke:#181818;stroke-width:0.5;" width="4" x="392.278" y="162.6211"/><rect fill="#F1F1F1" height="2" style="stroke:#181818;stroke-width:0.5;" width="4" x="392.278" y="166.6211"/><text fill="#000000" font-family="sans-serif" font-size="14" lengthAdjust="spacing" textLength="69.248" x="320.03" y="190.7285">EfcQueries</text></g><!--entity WebAPI--><g id="elem_WebAPI"><rect fill="#F1F1F1" height="48.6211" rx="2.5" ry="2.5" style="stroke:#181818;stroke-width:0.5;" width="91.3516" x="206.03" y="46.6211"/><rect fill="#F1F1F1" height="10" style="stroke:#181818;stroke-width:0.5;" width="15" x="277.3816" y="51.6211"/><rect fill="#F1F1F1" height="2" style="stroke:#181818;stroke-width:0.5;" width="4" x="275.3816" y="53.6211"/><rect fill="#F1F1F1" height="2" style="stroke:#181818;stroke-width:0.5;" width="4" x="275.3816" y="57.6211"/><text fill="#000000" font-family="sans-serif" font-size="14" lengthAdjust="spacing" textLength="51.3516" x="221.03" y="81.7285">WebAPI</text></g><!--link Application to Domain--><g id="link_Application_Domain"><path d="M404.76,439.7211 C426.46,453.9111 450.48,474.1811 462.53,499.6211 C479.64,535.7411 461.4214,576.0277 444.4914,603.2177 " fill="none" id="Application-to-Domain" style="stroke:#181818;stroke-width:1.0;"/><polygon fill="#181818" points="441.32,608.3111,449.4727,602.7853,443.9628,604.0666,442.6815,598.5568,441.32,608.3111" style="stroke:#181818;stroke-width:1.0;"/></g><!--link Application to QueryContracts--><g id="link_Application_QueryContracts"><path d="M363.86,439.8711 C366.34,457.6011 368.8984,475.779 371.3784,493.499 " fill="none" id="Application-to-QueryContracts" style="stroke:#181818;stroke-width:1.0;"/><polygon fill="#181818" points="372.21,499.4411,374.924,489.9735,371.517,494.4894,367.0012,491.0824,372.21,499.4411" style="stroke:#181818;stroke-width:1.0;"/></g><!--link Domain to OperationResult--><g id="link_Domain_OperationResult"><path d="M421.42,657.8711 C419.1,675.6011 416.7289,693.7719 414.4089,711.4919 " fill="none" id="Domain-to-OperationResult" style="stroke:#181818;stroke-width:1.0;"/><polygon fill="#181818" points="413.63,717.4411,418.7645,709.0365,414.2791,712.4834,410.8322,707.998,413.63,717.4411" style="stroke:#181818;stroke-width:1.0;"/></g><!--link QueryContracts to Domain--><g id="link_QueryContracts_Domain"><path d="M386.4,548.8711 C394.52,566.6011 403.073,585.2653 411.183,602.9853 " fill="none" id="QueryContracts-to-Domain" style="stroke:#181818;stroke-width:1.0;"/><polygon fill="#181818" points="413.68,608.4411,413.5717,598.5928,411.5992,603.8946,406.2974,601.9221,413.68,608.4411" style="stroke:#181818;stroke-width:1.0;"/></g><!--link QueryContracts to OperationResult--><g id="link_QueryContracts_OperationResult"><path d="M368.52,548.9811 C361.74,575.8311 353.81,620.5311 363.53,657.6211 C369.22,679.3411 378.621,696.4095 389.411,712.3795 " fill="none" id="QueryContracts-to-OperationResult" style="stroke:#181818;stroke-width:1.0;"/><polygon fill="#181818" points="392.77,717.3511,391.0459,707.6543,389.9708,713.2081,384.417,712.133,392.77,717.3511" style="stroke:#181818;stroke-width:1.0;"/></g><!--link DomainModelPersistence to Domain--><g id="link_DomainModelPersistence_Domain"><path d="M185.45,313.8311 C186.57,363.8011 196.14,480.8711 258.53,548.6211 C291.53,584.4511 337.6672,605.1461 374.6272,617.6661 " fill="none" id="DomainModelPersistence-to-Domain" style="stroke:#181818;stroke-width:1.0;"/><polygon fill="#181818" points="380.31,619.5911,373.0691,612.915,375.5743,617.9869,370.5024,620.4921,380.31,619.5911" style="stroke:#181818;stroke-width:1.0;"/></g><!--link DomainModelPersistence to QueryContracts--><g id="link_DomainModelPersistence_QueryContracts"><path d="M199.91,313.6611 C218.87,344.0011 254.02,397.8011 289.53,439.6211 C307.85,461.1911 326.5348,479.3702 344.1948,495.4602 " fill="none" id="DomainModelPersistence-to-QueryContracts" style="stroke:#181818;stroke-width:1.0;"/><polygon fill="#181818" points="348.63,499.5011,344.6711,490.4829,344.934,496.1337,339.2833,496.3965,348.63,499.5011" style="stroke:#181818;stroke-width:1.0;"/></g><!--link Services to Application--><g id="link_Services_Application"><path d="M366.2,313.7411 C364.95,335.8011 363.4372,362.5706 362.1972,384.6006 " fill="none" id="Services-to-Application" style="stroke:#181818;stroke-width:1.0;"/><polygon fill="#181818" points="361.86,390.5911,366.3595,381.8301,362.141,385.599,358.3721,381.3805,361.86,390.5911" style="stroke:#181818;stroke-width:1.0;"/></g><!--link Services to Domain--><g id="link_Services_Domain"><path d="M337.13,313.8311 C326.67,321.6811 314.76,330.2811 303.53,337.6211 C297.53,341.5411 293.13,339.4211 289.53,345.6211 C244.24,423.6511 245.61,469.8111 289.53,548.6211 C308.78,583.1611 343.3056,602.9766 374.8156,615.6866 " fill="none" id="Services-to-Domain" style="stroke:#181818;stroke-width:1.0;"/><polygon fill="#181818" points="380.38,617.9311,373.5297,610.8548,375.743,616.0607,370.5371,618.274,380.38,617.9311" style="stroke:#181818;stroke-width:1.0;"/></g><!--link EfcQueries to DomainModelPersistence--><g id="link_EfcQueries_DomainModelPersistence"><path d="M320.91,204.8711 C292.08,222.6011 257.9607,243.5777 229.1507,261.2977 " fill="none" id="EfcQueries-to-DomainModelPersistence" style="stroke:#181818;stroke-width:1.0;"/><polygon fill="#181818" points="224.04,264.4411,233.8016,263.1331,228.2989,261.8216,229.6104,256.3189,224.04,264.4411" style="stroke:#181818;stroke-width:1.0;"/></g><!--link EfcQueries to Services--><g id="link_EfcQueries_Services"><path d="M361.3,204.8711 C362.63,222.6011 363.9809,240.7379 365.3109,258.4579 " fill="none" id="EfcQueries-to-Services" style="stroke:#181818;stroke-width:1.0;"/><polygon fill="#181818" points="365.76,264.4411,369.0752,255.167,365.3858,259.4551,361.0976,255.7657,365.76,264.4411" style="stroke:#181818;stroke-width:1.0;"/></g><!--link EfcQueries to Domain--><g id="link_EfcQueries_Domain"><path d="M406.53,204.6311 C429.26,218.6911 454.4,238.8611 467.53,264.6211 C524.85,377.1211 508.18,426.9311 474.53,548.6211 C468.45,570.6111 458.3888,587.754 446.9188,603.664 " fill="none" id="EfcQueries-to-Domain" style="stroke:#181818;stroke-width:1.0;"/><polygon fill="#181818" points="443.41,608.5311,451.9179,603.5697,446.334,604.4752,445.4285,598.8913,443.41,608.5311" style="stroke:#181818;stroke-width:1.0;"/></g><!--link EfcQueries to QueryContracts--><g id="link_EfcQueries_QueryContracts"><path d="M388.78,204.8611 C405.04,220.0211 423.73,241.1911 432.53,264.6211 C459.87,337.4311 455.48,365.3011 432.53,439.6211 C425.59,462.0911 414.1281,479.3009 401.1281,494.9909 " fill="none" id="EfcQueries-to-QueryContracts" style="stroke:#181818;stroke-width:1.0;"/><polygon fill="#181818" points="397.3,499.6111,406.1222,495.2329,400.49,495.761,399.962,490.1288,397.3,499.6111" style="stroke:#181818;stroke-width:1.0;"/></g><!--link EfcQueries to OperationResult--><g id="link_EfcQueries_OperationResult"><path d="M414.08,202.9911 C487.64,236.5211 609.53,308.0711 609.53,414.1211 C609.53,414.1211 609.53,414.1211 609.53,525.1211 C609.53,615.1211 520.1367,680.6921 461.3767,714.6021 " fill="none" id="EfcQueries-to-OperationResult" style="stroke:#181818;stroke-width:1.0;"/><polygon fill="#181818" points="456.18,717.6011,465.9744,716.5671,460.5106,715.1019,461.9758,709.6381,456.18,717.6011" style="stroke:#181818;stroke-width:1.0;"/></g><!--link WebAPI to Application--><g id="link_WebAPI_Application"><path d="M297.06,75.5211 C344.45,80.1211 414.05,90.2211 430.53,110.6211 C493.93,189.1011 467.06,243.5811 430.53,337.6211 C422.51,358.2611 410.4768,372.692 395.5268,386.302 " fill="none" id="WebAPI-to-Application" style="stroke:#181818;stroke-width:1.0;"/><polygon fill="#181818" points="391.09,390.3411,400.438,387.2403,394.7873,386.9751,395.0525,381.3245,391.09,390.3411" style="stroke:#181818;stroke-width:1.0;"/></g><!--link WebAPI to QueryContracts--><g id="link_WebAPI_QueryContracts"><path d="M205.68,75.3711 C157.49,79.8511 86.36,89.8611 69.53,110.6211 C6,188.9911 23.04,248.0811 69.53,337.6211 C117.05,429.1511 225.9074,478.1054 300.5774,502.5354 " fill="none" id="WebAPI-to-QueryContracts" style="stroke:#181818;stroke-width:1.0;"/><polygon fill="#181818" points="306.28,504.4011,298.97,497.8008,301.5279,502.8463,296.4824,505.4042,306.28,504.4011" style="stroke:#181818;stroke-width:1.0;"/></g><!--link WebAPI to DomainModelPersistence--><g id="link_WebAPI_DomainModelPersistence"><path d="M233.58,95.7711 C230.56,100.5111 227.7,105.5911 225.53,110.6211 C202.92,162.9611 193.045,223.7763 188.745,258.6163 " fill="none" id="WebAPI-to-DomainModelPersistence" style="stroke:#181818;stroke-width:1.0;"/><polygon fill="#181818" points="188.01,264.5711,193.0823,256.1288,188.6225,259.6087,185.1425,255.1489,188.01,264.5711" style="stroke:#181818;stroke-width:1.0;"/></g><!--link WebAPI to EfcQueries--><g id="link_WebAPI_EfcQueries"><path d="M275.5,95.8711 C293.4,113.6011 313.4883,133.4976 331.3683,151.2176 " fill="none" id="WebAPI-to-EfcQueries" style="stroke:#181818;stroke-width:1.0;"/><polygon fill="#181818" points="335.63,155.4411,332.0532,146.2647,332.0786,151.9215,326.4218,151.9469,335.63,155.4411" style="stroke:#181818;stroke-width:1.0;"/></g><!--link WebAPI to Services--><g id="link_WebAPI_Services"><path d="M254.38,95.9711 C258.47,123.5911 267.82,169.7611 287.53,204.6211 C300.57,227.6911 316.9756,245.1625 334.1156,260.5525 " fill="none" id="WebAPI-to-Services" style="stroke:#181818;stroke-width:1.0;"/><polygon fill="#181818" points="338.58,264.5611,334.5558,255.5719,334.8596,261.2206,329.211,261.5245,338.58,264.5611" style="stroke:#181818;stroke-width:1.0;"/></g><!--SRC=[VLBBRiCW4Bpp5QjSUae_eLAKv12f3xUkr4Fa0yMRY8G00bp9glhlDNxK1kpUW9dTOMRNSISGxf_txv0hKJck96H6NP0vsA56MQ9a72qXzigbfeRUG5DsfMVCNTsKceP9vLaW8NUmLGQ7Sajw7gpyymg-2S3nHQEXNkKDRILSuTzswaQvR8-l5PfwgwGpjEdGFcsq5forDGNvyIe7UJBKEbCnLytgXOHUkLDvKYMA38tbrZNEi9N8qNnnXftU_iJyBxY_jd8V-0cFj4P3ZirnansAFwlbDA7Wfx1UFupEPg3OwS3jq2Icc1_rdqMJ9cbseO65Y2AjVrcnBJA6sn62SSRWe46cKvX2wVXIvZZDfIvpI3AFX34NPxSGKOpzbipv3Q14Ca0N3GUiwRQ6o1Z3Bm00]--></g></svg>