<svg xmlns="http://www.w3.org/2000/svg" xmlns:xlink="http://www.w3.org/1999/xlink" contentStyleType="text/css" height="967px" preserveAspectRatio="none" style="width:1042px;height:967px;background:#FFFFFF;" version="1.1" viewBox="0 0 1042 967" width="1042px" zoomAndPan="magnify"><defs/><g><!--cluster App Root--><g id="cluster_App Root"><path d="M284.5,6.0137 L348.4795,6.0137 A3.75,3.75 0 0 1 350.9795,8.5137 L357.9795,30.6348 L567.5,30.6348 A2.5,2.5 0 0 1 570,33.1348 L570,215.5137 A2.5,2.5 0 0 1 567.5,218.0137 L284.5,218.0137 A2.5,2.5 0 0 1 282,215.5137 L282,8.5137 A2.5,2.5 0 0 1 284.5,6.0137 " fill="none" style="stroke:#000000;stroke-width:1.5;"/><line style="stroke:#000000;stroke-width:1.5;" x1="282" x2="357.9795" y1="30.6348" y2="30.6348"/><text fill="#000000" font-family="sans-serif" font-size="14" font-weight="bold" lengthAdjust="spacing" textLength="62.9795" x="286" y="23.1211">App Root</text></g><!--cluster Layouts--><g id="cluster_Layouts"><path d="M8.5,422.0137 L63.1758,422.0137 A3.75,3.75 0 0 1 65.6758,424.5137 L72.6758,446.6348 L335.5,446.6348 A2.5,2.5 0 0 1 338,449.1348 L338,674.5137 A2.5,2.5 0 0 1 335.5,677.0137 L8.5,677.0137 A2.5,2.5 0 0 1 6,674.5137 L6,424.5137 A2.5,2.5 0 0 1 8.5,422.0137 " fill="none" style="stroke:#000000;stroke-width:1.5;"/><line style="stroke:#000000;stroke-width:1.5;" x1="6" x2="72.6758" y1="446.6348" y2="446.6348"/><text fill="#000000" font-family="sans-serif" font-size="14" font-weight="bold" lengthAdjust="spacing" textLength="53.6758" x="10" y="439.1211">Layouts</text></g><!--cluster Pages--><g id="cluster_Pages"><path d="M300.5,269.0137 L342.748,269.0137 A3.75,3.75 0 0 1 345.248,271.5137 L352.248,293.6348 L429.5,293.6348 A2.5,2.5 0 0 1 432,296.1348 L432,368.5137 A2.5,2.5 0 0 1 429.5,371.0137 L300.5,371.0137 A2.5,2.5 0 0 1 298,368.5137 L298,271.5137 A2.5,2.5 0 0 1 300.5,269.0137 " fill="none" style="stroke:#000000;stroke-width:1.5;"/><line style="stroke:#000000;stroke-width:1.5;" x1="298" x2="352.248" y1="293.6348" y2="293.6348"/><text fill="#000000" font-family="sans-serif" font-size="14" font-weight="bold" lengthAdjust="spacing" textLength="41.248" x="302" y="286.1211">Pages</text></g><!--cluster Components--><g id="cluster_Components"><path d="M364.5,575.0137 L451.0518,575.0137 A3.75,3.75 0 0 1 453.5518,577.5137 L460.5518,599.6348 L1009.5,599.6348 A2.5,2.5 0 0 1 1012,602.1348 L1012,804.5137 A2.5,2.5 0 0 1 1009.5,807.0137 L364.5,807.0137 A2.5,2.5 0 0 1 362,804.5137 L362,577.5137 A2.5,2.5 0 0 1 364.5,575.0137 " fill="none" style="stroke:#000000;stroke-width:1.5;"/><line style="stroke:#000000;stroke-width:1.5;" x1="362" x2="460.5518" y1="599.6348" y2="599.6348"/><text fill="#000000" font-family="sans-serif" font-size="14" font-weight="bold" lengthAdjust="spacing" textLength="85.5518" x="366" y="592.1211">Components</text></g><!--cluster State--><g id="cluster_State"><path d="M522.5,858.0137 L557.7344,858.0137 A3.75,3.75 0 0 1 560.2344,860.5137 L567.2344,882.6348 L874.5,882.6348 A2.5,2.5 0 0 1 877,885.1348 L877,957.5137 A2.5,2.5 0 0 1 874.5,960.0137 L522.5,960.0137 A2.5,2.5 0 0 1 520,957.5137 L520,860.5137 A2.5,2.5 0 0 1 522.5,858.0137 " fill="none" style="stroke:#000000;stroke-width:1.5;"/><line style="stroke:#000000;stroke-width:1.5;" x1="520" x2="567.2344" y1="882.6348" y2="882.6348"/><text fill="#000000" font-family="sans-serif" font-size="14" font-weight="bold" lengthAdjust="spacing" textLength="34.2344" x="524" y="875.1211">State</text></g><!--cluster Routing--><g id="cluster_Routing"><path d="M364.5,422.0137 L418.3691,422.0137 A3.75,3.75 0 0 1 420.8691,424.5137 L427.8691,446.6348 L503.5,446.6348 A2.5,2.5 0 0 1 506,449.1348 L506,521.5137 A2.5,2.5 0 0 1 503.5,524.0137 L364.5,524.0137 A2.5,2.5 0 0 1 362,521.5137 L362,424.5137 A2.5,2.5 0 0 1 364.5,422.0137 " fill="none" style="stroke:#000000;stroke-width:1.5;"/><line style="stroke:#000000;stroke-width:1.5;" x1="362" x2="427.8691" y1="446.6348" y2="446.6348"/><text fill="#000000" font-family="sans-serif" font-size="14" font-weight="bold" lengthAdjust="spacing" textLength="52.8691" x="366" y="439.1211">Routing</text></g><!--entity RootLayout--><g id="elem_RootLayout"><rect fill="#F1F1F1" height="48.6211" rx="2.5" ry="2.5" style="stroke:#181818;stroke-width:0.5;" width="111.6064" x="375" y="43.0137"/><rect fill="#F1F1F1" height="10" style="stroke:#181818;stroke-width:0.5;" width="15" x="466.6064" y="48.0137"/><rect fill="#F1F1F1" height="2" style="stroke:#181818;stroke-width:0.5;" width="4" x="464.6064" y="50.0137"/><rect fill="#F1F1F1" height="2" style="stroke:#181818;stroke-width:0.5;" width="4" x="464.6064" y="54.0137"/><text fill="#000000" font-family="sans-serif" font-size="14" lengthAdjust="spacing" textLength="71.6064" x="390" y="78.1211">RootLayout</text></g><!--entity ReduxProvider--><g id="elem_ReduxProvider"><rect fill="#F1F1F1" height="48.6211" rx="2.5" ry="2.5" style="stroke:#181818;stroke-width:0.5;" width="132.5996" x="298.5" y="153.0137"/><rect fill="#F1F1F1" height="10" style="stroke:#181818;stroke-width:0.5;" width="15" x="411.0996" y="158.0137"/><rect fill="#F1F1F1" height="2" style="stroke:#181818;stroke-width:0.5;" width="4" x="409.0996" y="160.0137"/><rect fill="#F1F1F1" height="2" style="stroke:#181818;stroke-width:0.5;" width="4" x="409.0996" y="164.0137"/><text fill="#000000" font-family="sans-serif" font-size="14" lengthAdjust="spacing" textLength="92.5996" x="313.5" y="188.1211">ReduxProvider</text></g><!--entity Toaster--><g id="elem_Toaster"><rect fill="#F1F1F1" height="48.6211" rx="2.5" ry="2.5" style="stroke:#181818;stroke-width:0.5;" width="87.4619" x="466.5" y="153.0137"/><rect fill="#F1F1F1" height="10" style="stroke:#181818;stroke-width:0.5;" width="15" x="533.9619" y="158.0137"/><rect fill="#F1F1F1" height="2" style="stroke:#181818;stroke-width:0.5;" width="4" x="531.9619" y="160.0137"/><rect fill="#F1F1F1" height="2" style="stroke:#181818;stroke-width:0.5;" width="4" x="531.9619" y="164.0137"/><text fill="#000000" font-family="sans-serif" font-size="14" lengthAdjust="spacing" textLength="47.4619" x="481.5" y="188.1211">Toaster</text></g><!--entity StepLayout--><g id="elem_StepLayout"><rect fill="#F1F1F1" height="48.6211" rx="2.5" ry="2.5" style="stroke:#181818;stroke-width:0.5;" width="110.834" x="201.5" y="459.0137"/><rect fill="#F1F1F1" height="10" style="stroke:#181818;stroke-width:0.5;" width="15" x="292.334" y="464.0137"/><rect fill="#F1F1F1" height="2" style="stroke:#181818;stroke-width:0.5;" width="4" x="290.334" y="466.0137"/><rect fill="#F1F1F1" height="2" style="stroke:#181818;stroke-width:0.5;" width="4" x="290.334" y="470.0137"/><text fill="#000000" font-family="sans-serif" font-size="14" lengthAdjust="spacing" textLength="70.834" x="216.5" y="494.1211">StepLayout</text></g><!--entity Navbar--><g id="elem_Navbar"><rect fill="#F1F1F1" height="48.6211" rx="2.5" ry="2.5" style="stroke:#181818;stroke-width:0.5;" width="85.1309" x="22.5" y="612.0137"/><rect fill="#F1F1F1" height="10" style="stroke:#181818;stroke-width:0.5;" width="15" x="87.6309" y="617.0137"/><rect fill="#F1F1F1" height="2" style="stroke:#181818;stroke-width:0.5;" width="4" x="85.6309" y="619.0137"/><rect fill="#F1F1F1" height="2" style="stroke:#181818;stroke-width:0.5;" width="4" x="85.6309" y="623.0137"/><text fill="#000000" font-family="sans-serif" font-size="14" lengthAdjust="spacing" textLength="45.1309" x="37.5" y="647.1211">Navbar</text></g><!--entity AppointmentSummary--><g id="elem_AppointmentSummary"><rect fill="#F1F1F1" height="48.6211" rx="2.5" ry="2.5" style="stroke:#181818;stroke-width:0.5;" width="178.5029" x="142.5" y="612.0137"/><rect fill="#F1F1F1" height="10" style="stroke:#181818;stroke-width:0.5;" width="15" x="301.0029" y="617.0137"/><rect fill="#F1F1F1" height="2" style="stroke:#181818;stroke-width:0.5;" width="4" x="299.0029" y="619.0137"/><rect fill="#F1F1F1" height="2" style="stroke:#181818;stroke-width:0.5;" width="4" x="299.0029" y="623.0137"/><text fill="#000000" font-family="sans-serif" font-size="14" lengthAdjust="spacing" textLength="138.5029" x="157.5" y="647.1211">AppointmentSummary</text></g><!--entity StepPage--><g id="elem_StepPage"><rect fill="#F1F1F1" height="48.6211" rx="2.5" ry="2.5" style="stroke:#181818;stroke-width:0.5;" width="101.4961" x="314.5" y="306.0137"/><rect fill="#F1F1F1" height="10" style="stroke:#181818;stroke-width:0.5;" width="15" x="395.9961" y="311.0137"/><rect fill="#F1F1F1" height="2" style="stroke:#181818;stroke-width:0.5;" width="4" x="393.9961" y="313.0137"/><rect fill="#F1F1F1" height="2" style="stroke:#181818;stroke-width:0.5;" width="4" x="393.9961" y="317.0137"/><text fill="#000000" font-family="sans-serif" font-size="14" lengthAdjust="spacing" textLength="61.4961" x="329.5" y="341.1211">StepPage</text></g><!--entity StepWrapper--><g id="elem_StepWrapper"><rect fill="#F1F1F1" height="48.6211" rx="2.5" ry="2.5" style="stroke:#181818;stroke-width:0.5;" width="122.4824" x="488" y="612.0137"/><rect fill="#F1F1F1" height="10" style="stroke:#181818;stroke-width:0.5;" width="15" x="590.4824" y="617.0137"/><rect fill="#F1F1F1" height="2" style="stroke:#181818;stroke-width:0.5;" width="4" x="588.4824" y="619.0137"/><rect fill="#F1F1F1" height="2" style="stroke:#181818;stroke-width:0.5;" width="4" x="588.4824" y="623.0137"/><text fill="#000000" font-family="sans-serif" font-size="14" lengthAdjust="spacing" textLength="82.4824" x="503" y="647.1211">StepWrapper</text></g><!--entity AppointmentContent--><g id="elem_AppointmentContent"><rect fill="#F1F1F1" height="48.6211" rx="2.5" ry="2.5" style="stroke:#181818;stroke-width:0.5;" width="167.6406" x="378" y="742.0137"/><rect fill="#F1F1F1" height="10" style="stroke:#181818;stroke-width:0.5;" width="15" x="525.6406" y="747.0137"/><rect fill="#F1F1F1" height="2" style="stroke:#181818;stroke-width:0.5;" width="4" x="523.6406" y="749.0137"/><rect fill="#F1F1F1" height="2" style="stroke:#181818;stroke-width:0.5;" width="4" x="523.6406" y="753.0137"/><text fill="#000000" font-family="sans-serif" font-size="14" lengthAdjust="spacing" textLength="127.6406" x="393" y="777.1211">AppointmentContent</text></g><!--entity AppointmentScheduler--><g id="elem_AppointmentScheduler"><rect fill="#F1F1F1" height="48.6211" rx="2.5" ry="2.5" style="stroke:#181818;stroke-width:0.5;" width="181.6475" x="581" y="742.0137"/><rect fill="#F1F1F1" height="10" style="stroke:#181818;stroke-width:0.5;" width="15" x="742.6475" y="747.0137"/><rect fill="#F1F1F1" height="2" style="stroke:#181818;stroke-width:0.5;" width="4" x="740.6475" y="749.0137"/><rect fill="#F1F1F1" height="2" style="stroke:#181818;stroke-width:0.5;" width="4" x="740.6475" y="753.0137"/><text fill="#000000" font-family="sans-serif" font-size="14" lengthAdjust="spacing" textLength="141.6475" x="596" y="777.1211">AppointmentScheduler</text></g><!--entity AppointmentConfirmation--><g id="elem_AppointmentConfirmation"><rect fill="#F1F1F1" height="48.6211" rx="2.5" ry="2.5" style="stroke:#181818;stroke-width:0.5;" width="197.9717" x="798" y="742.0137"/><rect fill="#F1F1F1" height="10" style="stroke:#181818;stroke-width:0.5;" width="15" x="975.9717" y="747.0137"/><rect fill="#F1F1F1" height="2" style="stroke:#181818;stroke-width:0.5;" width="4" x="973.9717" y="749.0137"/><rect fill="#F1F1F1" height="2" style="stroke:#181818;stroke-width:0.5;" width="4" x="973.9717" y="753.0137"/><text fill="#000000" font-family="sans-serif" font-size="14" lengthAdjust="spacing" textLength="157.9717" x="813" y="777.1211">AppointmentConfirmation</text></g><!--entity Redux Store--><g id="elem_Redux Store"><rect fill="#F1F1F1" height="48.6211" rx="2.5" ry="2.5" style="stroke:#181818;stroke-width:0.5;" width="117.8203" x="536" y="895.0137"/><rect fill="#F1F1F1" height="10" style="stroke:#181818;stroke-width:0.5;" width="15" x="633.8203" y="900.0137"/><rect fill="#F1F1F1" height="2" style="stroke:#181818;stroke-width:0.5;" width="4" x="631.8203" y="902.0137"/><rect fill="#F1F1F1" height="2" style="stroke:#181818;stroke-width:0.5;" width="4" x="631.8203" y="906.0137"/><text fill="#000000" font-family="sans-serif" font-size="14" lengthAdjust="spacing" textLength="77.8203" x="551" y="930.1211">Redux Store</text></g><!--entity RTK Query API Slice--><g id="elem_RTK Query API Slice"><rect fill="#F1F1F1" height="48.6211" rx="2.5" ry="2.5" style="stroke:#181818;stroke-width:0.5;" width="170.7031" x="689.5" y="895.0137"/><rect fill="#F1F1F1" height="10" style="stroke:#181818;stroke-width:0.5;" width="15" x="840.2031" y="900.0137"/><rect fill="#F1F1F1" height="2" style="stroke:#181818;stroke-width:0.5;" width="4" x="838.2031" y="902.0137"/><rect fill="#F1F1F1" height="2" style="stroke:#181818;stroke-width:0.5;" width="4" x="838.2031" y="906.0137"/><text fill="#000000" font-family="sans-serif" font-size="14" lengthAdjust="spacing" textLength="130.7031" x="704.5" y="930.1211">RTK Query API Slice</text></g><!--entity useParams--><g id="elem_useParams"><rect fill="#F1F1F1" height="48.6211" rx="2.5" ry="2.5" style="stroke:#181818;stroke-width:0.5;" width="110.8066" x="378.5" y="459.0137"/><rect fill="#F1F1F1" height="10" style="stroke:#181818;stroke-width:0.5;" width="15" x="469.3066" y="464.0137"/><rect fill="#F1F1F1" height="2" style="stroke:#181818;stroke-width:0.5;" width="4" x="467.3066" y="466.0137"/><rect fill="#F1F1F1" height="2" style="stroke:#181818;stroke-width:0.5;" width="4" x="467.3066" y="470.0137"/><text fill="#000000" font-family="sans-serif" font-size="14" lengthAdjust="spacing" textLength="70.8066" x="393.5" y="494.1211">useParams</text></g><!--link RootLayout to ReduxProvider--><g id="link_RootLayout_ReduxProvider"><path d="M416.52,92.2137 C405.51,110.2237 393.58,129.7548 382.58,147.7448 " fill="none" id="RootLayout-to-ReduxProvider" style="stroke:#181818;stroke-width:1.0;"/><polygon fill="#181818" points="379.45,152.8637,387.5576,147.2719,382.0583,148.5979,380.7323,143.0987,379.45,152.8637" style="stroke:#181818;stroke-width:1.0;"/></g><!--link RootLayout to Toaster--><g id="link_RootLayout_Toaster"><path d="M448.34,92.2137 C461.51,110.2237 475.9975,130.0311 489.1575,148.0211 " fill="none" id="RootLayout-to-Toaster" style="stroke:#181818;stroke-width:1.0;"/><polygon fill="#181818" points="492.7,152.8637,490.6147,143.2381,489.7479,148.8282,484.1579,147.9614,492.7,152.8637" style="stroke:#181818;stroke-width:1.0;"/></g><!--link ReduxProvider to StepPage--><g id="link_ReduxProvider_StepPage"><path d="M365,202.1037 C365,230.3137 365,271.2437 365,299.5837 " fill="none" id="ReduxProvider-to-StepPage" style="stroke:#181818;stroke-width:1.0;"/><polygon fill="#181818" points="365,305.5837,369,296.5837,365,300.5837,361,296.5837,365,305.5837" style="stroke:#181818;stroke-width:1.0;"/><text fill="#000000" font-family="sans-serif" font-size="13" lengthAdjust="spacing" textLength="34.6772" x="366" y="249.042">wraps</text></g><!--link StepPage to StepLayout--><g id="link_StepPage_StepLayout"><path d="M348.12,355.1037 C327.95,383.3137 297.8817,425.3643 277.6017,453.7043 " fill="none" id="StepPage-to-StepLayout" style="stroke:#181818;stroke-width:1.0;"/><polygon fill="#181818" points="274.11,458.5837,282.6004,453.5924,277.0197,454.5175,276.0946,448.9368,274.11,458.5837" style="stroke:#181818;stroke-width:1.0;"/></g><!--link StepLayout to Navbar--><g id="link_StepLayout_Navbar"><path d="M212.3,508.0737 C185.64,523.1637 151.86,544.1637 125,567.0137 C109.35,580.3337 97.8763,593.115 86.6763,607.065 " fill="none" id="StepLayout-to-Navbar" style="stroke:#181818;stroke-width:1.0;"/><polygon fill="#181818" points="82.92,611.7437,91.6736,607.2299,86.0503,607.8448,85.4354,602.2214,82.92,611.7437" style="stroke:#181818;stroke-width:1.0;"/></g><!--link StepLayout to AppointmentSummary--><g id="link_StepLayout_AppointmentSummary"><path d="M253.09,508.1037 C248.42,536.3137 241.6296,577.3242 236.9396,605.6642 " fill="none" id="StepLayout-to-AppointmentSummary" style="stroke:#181818;stroke-width:1.0;"/><polygon fill="#181818" points="235.96,611.5837,241.3758,603.3575,236.7763,606.6508,233.4831,602.0514,235.96,611.5837" style="stroke:#181818;stroke-width:1.0;"/></g><!--link StepLayout to StepWrapper--><g id="link_StepLayout_StepWrapper"><path d="M302.62,508.1037 C357.32,536.3937 443.1205,580.7575 497.8805,609.0775 " fill="none" id="StepLayout-to-StepWrapper" style="stroke:#181818;stroke-width:1.0;"/><polygon fill="#181818" points="503.21,611.8337,497.0533,604.1464,498.7688,609.5368,493.3783,611.2523,503.21,611.8337" style="stroke:#181818;stroke-width:1.0;"/><text fill="#000000" font-family="sans-serif" font-size="13" lengthAdjust="spacing" textLength="110.5571" x="395" y="555.042">renders as children</text></g><!--link StepWrapper to AppointmentContent--><g id="link_StepWrapper_AppointmentContent"><path d="M532.84,661.2937 C517.21,684.2837 497.043,713.9515 481.443,736.9015 " fill="none" id="StepWrapper-to-AppointmentContent" style="stroke:#181818;stroke-width:1.0;"/><polygon fill="#181818" points="478.07,741.8637,486.4376,736.6691,480.8808,737.7285,479.8214,732.1718,478.07,741.8637" style="stroke:#181818;stroke-width:1.0;"/><text fill="#000000" font-family="sans-serif" font-size="13" lengthAdjust="spacing" textLength="97.1763" x="511" y="708.042">if step = services</text></g><!--link StepWrapper to AppointmentScheduler--><g id="link_StepWrapper_AppointmentScheduler"><path d="M579.72,661.1437 C591.25,670.5637 604.17,681.8237 615,693.0137 C629.81,708.3137 641.0554,722.45 651.8654,737.15 " fill="none" id="StepWrapper-to-AppointmentScheduler" style="stroke:#181818;stroke-width:1.0;"/><polygon fill="#181818" points="655.42,741.9837,653.3106,732.3634,652.4578,737.9556,646.8656,737.1028,655.42,741.9837" style="stroke:#181818;stroke-width:1.0;"/><text fill="#000000" font-family="sans-serif" font-size="13" lengthAdjust="spacing" textLength="99.3599" x="632" y="708.042">if step = datetime</text></g><!--link StepWrapper to AppointmentConfirmation--><g id="link_StepWrapper_AppointmentConfirmation"><path d="M610.4,652.8437 C648.23,662.9037 697.47,677.1137 740,693.0137 C778.11,707.2537 814.4761,724.0853 845.3361,739.2653 " fill="none" id="StepWrapper-to-AppointmentConfirmation" style="stroke:#181818;stroke-width:1.0;"/><polygon fill="#181818" points="850.72,741.9137,844.4097,734.3519,846.2334,739.7067,840.8786,741.5304,850.72,741.9137" style="stroke:#181818;stroke-width:1.0;"/><text fill="#000000" font-family="sans-serif" font-size="13" lengthAdjust="spacing" textLength="120.3071" x="784" y="708.042">if step = confirmation</text></g><!--link AppointmentContent to Redux Store--><g id="link_AppointmentContent_Redux Store"><path d="M465.19,791.1337 C468.24,806.7637 474.06,827.0437 485,842.0137 C501.13,864.0737 520.4717,878.939 542.2517,891.879 " fill="none" id="AppointmentContent-to-Redux Store" style="stroke:#181818;stroke-width:1.0;"/><polygon fill="#181818" points="547.41,894.9437,541.7157,886.9078,543.1114,892.3898,537.6295,893.7855,547.41,894.9437" style="stroke:#181818;stroke-width:1.0;"/><text fill="#000000" font-family="sans-serif" font-size="13" lengthAdjust="spacing" textLength="91.0508" x="486" y="838.042">update services</text></g><!--link AppointmentScheduler to RTK Query API Slice--><g id="link_AppointmentScheduler_RTK Query API Slice"><path d="M688.09,791.1037 C707.33,819.3137 735.9579,861.2877 755.2979,889.6277 " fill="none" id="AppointmentScheduler-to-RTK Query API Slice" style="stroke:#181818;stroke-width:1.0;"/><polygon fill="#181818" points="758.68,894.5837,756.9108,884.895,755.8616,890.4537,750.3029,889.4045,758.68,894.5837" style="stroke:#181818;stroke-width:1.0;"/><text fill="#000000" font-family="sans-serif" font-size="13" lengthAdjust="spacing" textLength="86.6963" x="721" y="838.042">fetch time slots</text></g><!--link AppointmentScheduler to Redux Store--><g id="link_AppointmentScheduler_Redux Store"><path d="M622.35,791.1037 C610.24,799.4037 598.82,809.9837 592,823.0137 C580.39,845.2037 582.2129,868.5878 586.7329,888.8378 " fill="none" id="AppointmentScheduler-to-Redux Store" style="stroke:#181818;stroke-width:1.0;"/><polygon fill="#181818" points="588.04,894.6937,589.9833,885.0384,586.9508,889.8138,582.1754,886.7812,588.04,894.6937" style="stroke:#181818;stroke-width:1.0;"/><text fill="#000000" font-family="sans-serif" font-size="13" lengthAdjust="spacing" textLength="93.2344" x="593" y="838.042">update datetime</text></g><!--link AppointmentConfirmation to Redux Store--><g id="link_AppointmentConfirmation_Redux Store"><path d="M878.92,791.3037 C864.12,808.7637 841.52,831.2337 816,842.0137 C786.48,854.4837 701.63,837.7937 672,850.0137 C648.84,859.5637 631.9928,874.6841 617.8428,890.4841 " fill="none" id="AppointmentConfirmation-to-Redux Store" style="stroke:#181818;stroke-width:1.0;"/><polygon fill="#181818" points="613.84,894.9537,622.824,890.9178,617.1757,891.229,616.8645,885.5807,613.84,894.9537" style="stroke:#181818;stroke-width:1.0;"/><text fill="#000000" font-family="sans-serif" font-size="13" lengthAdjust="spacing" textLength="57.8145" x="847" y="838.042">read state</text></g><!--link AppointmentConfirmation to RTK Query API Slice--><g id="link_AppointmentConfirmation_RTK Query API Slice"><path d="M912.89,791.2837 C920.97,806.5837 927.32,826.4537 918,842.0137 C903.46,866.2837 883.7321,880.767 858.5321,892.467 " fill="none" id="AppointmentConfirmation-to-RTK Query API Slice" style="stroke:#181818;stroke-width:1.0;"/><polygon fill="#181818" points="853.09,894.9937,862.9375,894.8317,857.625,892.8881,859.5686,887.5756,853.09,894.9937" style="stroke:#181818;stroke-width:1.0;"/><text fill="#000000" font-family="sans-serif" font-size="13" lengthAdjust="spacing" textLength="111.2935" x="923" y="838.042">create appointment</text></g><!--link StepPage to useParams--><g id="link_StepPage_useParams"><path d="M375.78,355.1037 C388.67,383.3137 407.6147,424.7872 420.5747,453.1272 " fill="none" id="StepPage-to-useParams" style="stroke:#181818;stroke-width:1.0;"/><polygon fill="#181818" points="423.07,458.5837,422.9647,448.7354,420.9906,454.0366,415.6894,452.0624,423.07,458.5837" style="stroke:#181818;stroke-width:1.0;"/><text fill="#000000" font-family="sans-serif" font-size="13" lengthAdjust="spacing" textLength="46.2554" x="398" y="402.042">get step</text></g><!--SRC=[XLDDRy8m3BtdLrWSnea_C6cJ4ATfqzG1qWxJ3bdgGaJRH4aAGzF- -vpqAoqTN22n_PwTzzmvh9LoaFEpgXnOPohXAeDCSt7WEuJPKkjGCeCV1l3XZo-X-3DSCQs-4wEECaKJ8bl5hVFdNyRcK9VQdgu9D6mRXpfYU-N7BrxJK5ibIrTWwJPLKN1pRXWJeedumZLYy_Ucqbz1g4AhabWYpAgBHS1tmxN6Y-OhLJhwkvX9xEdb-MHz9at1dLHbDmTt27TWIIF0B4CH3nEohRXUJQfN1cjrjy_mLg4vmp9vWaqkHVksDKacontGRowTZ1LfKWrbPJ7XXXTsO0XakJgntajOB1vXuEKusTZA1aKXqweEzt0Y3IrZNQHDrpoiFuPCxVOuUcdyk29oYteQB6aI2zo2sCiyfNjdlgcbO35YrAFnbuXaHkjFe0UmQ8uajRs6wnPWW4p9IoSBlD6nsv01M4I9Vcy8XOOB7xHiOd3FFbWSugoq7wH_n-JSDN1YmuWWGoVsu5y2DbVkAiDawqw8_nu-XJN8KnA3e3TWqqCBmbDhtaFZBsMlrC4ELxFxDWYyGnTyO7y0]--></g></svg>